<svg width="70" height="54" viewBox="0 0 70 54" fill="none" xmlns="http://www.w3.org/2000/svg">
<path d="M44.4189 17L35 28.1758L25.5811 17H44.4189Z" fill="white" stroke="url(#paint0_linear_3015_75084)" stroke-width="34"/>
<path d="M24.5028 24V22.4773L28.5426 18.517C28.929 18.1269 29.2509 17.7803 29.5085 17.4773C29.7661 17.1742 29.9593 16.8807 30.0881 16.5966C30.2169 16.3125 30.2812 16.0095 30.2812 15.6875C30.2812 15.3201 30.1979 15.0057 30.0312 14.7443C29.8646 14.4792 29.6354 14.2746 29.3438 14.1307C29.0521 13.9867 28.7206 13.9148 28.3494 13.9148C27.9669 13.9148 27.6316 13.9943 27.3438 14.1534C27.0559 14.3087 26.8324 14.5303 26.6733 14.8182C26.518 15.1061 26.4403 15.4489 26.4403 15.8466H24.4347C24.4347 15.108 24.6032 14.4659 24.9403 13.9205C25.2775 13.375 25.7415 12.9527 26.3324 12.6534C26.9271 12.3542 27.6089 12.2045 28.3778 12.2045C29.1581 12.2045 29.8438 12.3504 30.4347 12.642C31.0256 12.9337 31.4839 13.3333 31.8097 13.8409C32.1392 14.3485 32.304 14.928 32.304 15.5795C32.304 16.0152 32.2206 16.4432 32.054 16.8636C31.8873 17.2841 31.5938 17.75 31.1733 18.2614C30.7566 18.7727 30.1714 19.392 29.4176 20.1193L27.4119 22.1591V22.2386H32.4801V24H24.5028ZM38.4858 24.1591C37.7282 24.1591 37.0502 24.017 36.4517 23.733C35.8532 23.4451 35.3778 23.0511 35.0256 22.5511C34.6771 22.0511 34.4915 21.4792 34.4688 20.8352H36.5142C36.5521 21.3125 36.7585 21.7027 37.1335 22.0057C37.5085 22.3049 37.9593 22.4545 38.4858 22.4545C38.8987 22.4545 39.2661 22.3598 39.5881 22.1705C39.91 21.9811 40.1638 21.7178 40.3494 21.3807C40.535 21.0436 40.6259 20.6591 40.6222 20.2273C40.6259 19.7879 40.5331 19.3977 40.3438 19.0568C40.1544 18.7159 39.8949 18.4489 39.5653 18.2557C39.2358 18.0587 38.857 17.9602 38.429 17.9602C38.0805 17.9564 37.7377 18.0208 37.4006 18.1534C37.0634 18.286 36.7964 18.4602 36.5994 18.6761L34.696 18.3636L35.304 12.3636H42.054V14.125H37.0483L36.7131 17.2102H36.7812C36.9972 16.9564 37.3021 16.7462 37.696 16.5795C38.09 16.4091 38.5218 16.3239 38.9915 16.3239C39.696 16.3239 40.3248 16.4905 40.8778 16.8239C41.4309 17.1534 41.8665 17.608 42.1847 18.1875C42.5028 18.767 42.6619 19.4299 42.6619 20.1761C42.6619 20.9451 42.4839 21.6307 42.1278 22.233C41.7756 22.8314 41.285 23.303 40.6562 23.6477C40.0312 23.9886 39.3078 24.1591 38.4858 24.1591Z" fill="white"/>
<path d="M47.2212 23.0455V22.777C47.2212 22.5798 47.2627 22.3983 47.3455 22.2326C47.43 22.0669 47.5527 21.9335 47.7134 21.8324C47.8742 21.7313 48.0689 21.6808 48.2976 21.6808C48.5329 21.6808 48.7301 21.7313 48.8892 21.8324C49.0483 21.9318 49.1684 22.0644 49.2496 22.2301C49.3325 22.3958 49.3739 22.5781 49.3739 22.777V23.0455C49.3739 23.2427 49.3325 23.4241 49.2496 23.5898C49.1668 23.7556 49.045 23.889 48.8842 23.9901C48.7251 24.0911 48.5296 24.1417 48.2976 24.1417C48.0656 24.1417 47.8692 24.0911 47.7085 23.9901C47.5477 23.889 47.4259 23.7556 47.343 23.5898C47.2618 23.4241 47.2212 23.2427 47.2212 23.0455ZM47.87 22.777V23.0455C47.87 23.1764 47.9015 23.2965 47.9645 23.4059C48.0275 23.5153 48.1385 23.57 48.2976 23.57C48.4583 23.57 48.5685 23.5161 48.6282 23.4084C48.6895 23.299 48.7202 23.178 48.7202 23.0455V22.777C48.7202 22.6444 48.6912 22.5234 48.6332 22.4141C48.5752 22.303 48.4633 22.2475 48.2976 22.2475C48.1418 22.2475 48.0316 22.303 47.967 22.4141C47.9023 22.5234 47.87 22.6444 47.87 22.777ZM44.6335 20.1321V19.8636C44.6335 19.6648 44.6758 19.4825 44.7603 19.3168C44.8448 19.151 44.9674 19.0185 45.1282 18.919C45.2889 18.8179 45.4837 18.7674 45.7124 18.7674C45.946 18.7674 46.1424 18.8179 46.3015 18.919C46.4622 19.0185 46.5832 19.151 46.6644 19.3168C46.7456 19.4825 46.7862 19.6648 46.7862 19.8636V20.1321C46.7862 20.331 46.7448 20.5133 46.6619 20.679C46.5807 20.843 46.4598 20.9748 46.299 21.0742C46.1383 21.1737 45.9427 21.2234 45.7124 21.2234C45.4787 21.2234 45.2815 21.1737 45.1207 21.0742C44.9616 20.9748 44.8407 20.8422 44.7578 20.6765C44.675 20.5108 44.6335 20.3293 44.6335 20.1321ZM45.2873 19.8636V20.1321C45.2873 20.2647 45.3179 20.3857 45.3793 20.495C45.4422 20.6027 45.5533 20.6566 45.7124 20.6566C45.8714 20.6566 45.9808 20.6027 46.0405 20.495C46.1018 20.3857 46.1325 20.2647 46.1325 20.1321V19.8636C46.1325 19.7311 46.1035 19.6101 46.0455 19.5007C45.9875 19.3897 45.8764 19.3342 45.7124 19.3342C45.5549 19.3342 45.4447 19.3897 45.3817 19.5007C45.3188 19.6117 45.2873 19.7327 45.2873 19.8636ZM44.9169 24L48.4169 18.9091H49.0384L45.5384 24H44.9169Z" fill="white"/>
<defs>
<linearGradient id="paint0_linear_3015_75084" x1="63.9776" y1="6" x2="31.4708" y2="49.9778" gradientUnits="userSpaceOnUse">
<stop stop-color="#2E253A"/>
<stop offset="0.5" stop-color="#68526E"/>
<stop offset="1" stop-color="#2E253A"/>
</linearGradient>
</defs>
</svg>
