<svg width="70" height="54" viewBox="0 0 70 54" fill="none" xmlns="http://www.w3.org/2000/svg">
<path d="M44.4189 17L35 28.1758L25.5811 17H44.4189Z" fill="#2C2C2C" stroke="white" stroke-width="34"/>
<path d="M23.9332 21.8409V20.1648L28.8707 12.3636H30.2685V14.75H29.4162L26.0923 20.017V20.108H32.9844V21.8409H23.9332ZM29.4844 24V21.3295L29.5071 20.5795V12.3636H31.4957V24H29.4844ZM38.8452 24.1591C38.0876 24.1591 37.4096 24.017 36.8111 23.733C36.2126 23.4451 35.7372 23.0511 35.3849 22.5511C35.0365 22.0511 34.8509 21.4792 34.8281 20.8352H36.8736C36.9115 21.3125 37.1179 21.7027 37.4929 22.0057C37.8679 22.3049 38.3187 22.4545 38.8452 22.4545C39.258 22.4545 39.6255 22.3598 39.9474 22.1705C40.2694 21.9811 40.5232 21.7178 40.7088 21.3807C40.8944 21.0436 40.9853 20.6591 40.9815 20.2273C40.9853 19.7879 40.8925 19.3977 40.7031 19.0568C40.5137 18.7159 40.2543 18.4489 39.9247 18.2557C39.5952 18.0587 39.2164 17.9602 38.7884 17.9602C38.4399 17.9564 38.0971 18.0208 37.7599 18.1534C37.4228 18.286 37.1558 18.4602 36.9588 18.6761L35.0554 18.3636L35.6634 12.3636H42.4134V14.125H37.4077L37.0724 17.2102H37.1406C37.3565 16.9564 37.6615 16.7462 38.0554 16.5795C38.4493 16.4091 38.8812 16.3239 39.3509 16.3239C40.0554 16.3239 40.6842 16.4905 41.2372 16.8239C41.7902 17.1534 42.2259 17.608 42.544 18.1875C42.8622 18.767 43.0213 19.4299 43.0213 20.1761C43.0213 20.9451 42.8433 21.6307 42.4872 22.233C42.1349 22.8314 41.6444 23.303 41.0156 23.6477C40.3906 23.9886 39.6671 24.1591 38.8452 24.1591Z" fill="#2C2C2C"/>
<path d="M47.2212 23.0455V22.777C47.2212 22.5798 47.2627 22.3983 47.3455 22.2326C47.43 22.0669 47.5527 21.9335 47.7134 21.8324C47.8742 21.7313 48.0689 21.6808 48.2976 21.6808C48.5329 21.6808 48.7301 21.7313 48.8892 21.8324C49.0483 21.9318 49.1684 22.0644 49.2496 22.2301C49.3325 22.3958 49.3739 22.5781 49.3739 22.777V23.0455C49.3739 23.2427 49.3325 23.4241 49.2496 23.5898C49.1668 23.7556 49.045 23.889 48.8842 23.9901C48.7251 24.0911 48.5296 24.1417 48.2976 24.1417C48.0656 24.1417 47.8692 24.0911 47.7085 23.9901C47.5477 23.889 47.4259 23.7556 47.343 23.5898C47.2618 23.4241 47.2212 23.2427 47.2212 23.0455ZM47.87 22.777V23.0455C47.87 23.1764 47.9015 23.2965 47.9645 23.4059C48.0275 23.5153 48.1385 23.57 48.2976 23.57C48.4583 23.57 48.5685 23.5161 48.6282 23.4084C48.6895 23.299 48.7202 23.178 48.7202 23.0455V22.777C48.7202 22.6444 48.6912 22.5234 48.6332 22.4141C48.5752 22.303 48.4633 22.2475 48.2976 22.2475C48.1418 22.2475 48.0316 22.303 47.967 22.4141C47.9023 22.5234 47.87 22.6444 47.87 22.777ZM44.6335 20.1321V19.8636C44.6335 19.6648 44.6758 19.4825 44.7603 19.3168C44.8448 19.151 44.9674 19.0185 45.1282 18.919C45.2889 18.8179 45.4837 18.7674 45.7124 18.7674C45.946 18.7674 46.1424 18.8179 46.3015 18.919C46.4622 19.0185 46.5832 19.151 46.6644 19.3168C46.7456 19.4825 46.7862 19.6648 46.7862 19.8636V20.1321C46.7862 20.331 46.7448 20.5133 46.6619 20.679C46.5807 20.843 46.4598 20.9748 46.299 21.0742C46.1383 21.1737 45.9427 21.2234 45.7124 21.2234C45.4787 21.2234 45.2815 21.1737 45.1207 21.0742C44.9616 20.9748 44.8407 20.8422 44.7578 20.6765C44.675 20.5108 44.6335 20.3293 44.6335 20.1321ZM45.2873 19.8636V20.1321C45.2873 20.2647 45.3179 20.3857 45.3793 20.495C45.4422 20.6027 45.5533 20.6566 45.7124 20.6566C45.8714 20.6566 45.9808 20.6027 46.0405 20.495C46.1018 20.3857 46.1325 20.2647 46.1325 20.1321V19.8636C46.1325 19.7311 46.1035 19.6101 46.0455 19.5007C45.9875 19.3897 45.8764 19.3342 45.7124 19.3342C45.5549 19.3342 45.4447 19.3897 45.3817 19.5007C45.3188 19.6117 45.2873 19.7327 45.2873 19.8636ZM44.9169 24L48.4169 18.9091H49.0384L45.5384 24H44.9169Z" fill="#2C2C2C"/>
</svg>
