<svg width="28" height="24" viewBox="0 0 28 24" fill="none" xmlns="http://www.w3.org/2000/svg">
<g filter="url(#filter0_d_2930_72441)">
<path d="M16.4672 10C12.8954 10 10 12.8954 10 16.4672C10 12.8954 7.10456 10 3.53284 10C7.10456 10 10 7.10456 10 3.53284C10 7.10456 12.8954 10 16.4672 10Z" fill="url(#paint0_linear_2930_72441)"/>
</g>
<path d="M25.5433 17.9883C22.4818 17.9883 20 20.4701 20 23.5316C20 20.4701 17.5182 17.9883 14.4567 17.9883C17.5182 17.9883 20 15.5065 20 12.445C20 15.5065 22.4818 17.9883 25.5433 17.9883Z" fill="#2C2C2C"/>
<path d="M27.6955 7.99707C25.6545 7.99707 24 9.65161 24 11.6926C24 9.65161 22.3455 7.99707 20.3045 7.99707C22.3455 7.99707 24 6.34253 24 4.30155C24 6.34253 25.6545 7.99707 27.6955 7.99707Z" fill="#2C2C2C"/>
<defs>
<filter id="filter0_d_2930_72441" x="1.53125" y="1.5332" width="16.9375" height="16.9336" filterUnits="userSpaceOnUse" color-interpolation-filters="sRGB">
<feFlood flood-opacity="0" result="BackgroundImageFix"/>
<feColorMatrix in="SourceAlpha" type="matrix" values="0 0 0 0 0 0 0 0 0 0 0 0 0 0 0 0 0 0 127 0" result="hardAlpha"/>
<feOffset/>
<feGaussianBlur stdDeviation="1"/>
<feComposite in2="hardAlpha" operator="out"/>
<feColorMatrix type="matrix" values="0 0 0 0 0.913725 0 0 0 0 0.866667 0 0 0 0 0.831373 0 0 0 1 0"/>
<feBlend mode="normal" in2="BackgroundImageFix" result="effect1_dropShadow_2930_72441"/>
<feBlend mode="normal" in="SourceGraphic" in2="effect1_dropShadow_2930_72441" result="shape"/>
</filter>
<linearGradient id="paint0_linear_2930_72441" x1="17" y1="3.03516" x2="3" y2="17.0352" gradientUnits="userSpaceOnUse">
<stop stop-color="#8D6C5C"/>
<stop offset="0.5" stop-color="#D6C2B3"/>
<stop offset="1" stop-color="#8D6C5C"/>
</linearGradient>
</defs>
</svg>
