<svg width="28" height="24" viewBox="0 0 28 24" fill="none" xmlns="http://www.w3.org/2000/svg">
<path d="M19.2388 10C14.1363 10 10 14.1364 10 19.2388C10 14.1364 5.86365 10 0.761204 10C5.86365 10 10 5.86365 10 0.761204C10 5.86365 14.1363 10 19.2388 10Z" fill="url(#paint0_linear_2930_72464)"/>
<path d="M25.5433 17.9883C22.4818 17.9883 20 20.4701 20 23.5316C20 20.4701 17.5182 17.9883 14.4567 17.9883C17.5182 17.9883 20 15.5065 20 12.445C20 15.5065 22.4818 17.9883 25.5433 17.9883Z" fill="url(#paint1_linear_2930_72464)"/>
<path d="M27.6955 7.99707C25.6545 7.99707 24 9.65161 24 11.6926C24 9.65161 22.3455 7.99707 20.3045 7.99707C22.3455 7.99707 24 6.34253 24 4.30155C24 6.34253 25.6545 7.99707 27.6955 7.99707Z" fill="url(#paint2_linear_2930_72464)"/>
<defs>
<linearGradient id="paint0_linear_2930_72464" x1="20" y1="0.0468752" x2="2.38884e-07" y2="20.0469" gradientUnits="userSpaceOnUse">
<stop stop-color="#7C5E4F"/>
<stop offset="0.5" stop-color="#E2D3CA"/>
<stop offset="1" stop-color="#7C5E4F"/>
</linearGradient>
<linearGradient id="paint1_linear_2930_72464" x1="26" y1="12.0469" x2="14" y2="24.0469" gradientUnits="userSpaceOnUse">
<stop stop-color="#7C5E4F"/>
<stop offset="0.5" stop-color="#E2D3CA"/>
<stop offset="1" stop-color="#7C5E4F"/>
</linearGradient>
<linearGradient id="paint2_linear_2930_72464" x1="28" y1="4.04688" x2="20" y2="12.0469" gradientUnits="userSpaceOnUse">
<stop stop-color="#7C5E4F"/>
<stop offset="0.5" stop-color="#E2D3CA"/>
<stop offset="1" stop-color="#7C5E4F"/>
</linearGradient>
</defs>
</svg>
