<svg width="28" height="24" viewBox="0 0 28 24" fill="none" xmlns="http://www.w3.org/2000/svg">
<path d="M19.2388 10C14.1363 10 10 14.1364 10 19.2388C10 14.1364 5.86365 10 0.761204 10C5.86365 10 10 5.86365 10 0.761204C10 5.86365 14.1363 10 19.2388 10Z" fill="#2C2C2C"/>
<path d="M25.5433 17.9883C22.4818 17.9883 20 20.4701 20 23.5316C20 20.4701 17.5182 17.9883 14.4567 17.9883C17.5182 17.9883 20 15.5065 20 12.445C20 15.5065 22.4818 17.9883 25.5433 17.9883Z" fill="#2C2C2C"/>
<path d="M27.6955 7.99707C25.6545 7.99707 24 9.65161 24 11.6926C24 9.65161 22.3455 7.99707 20.3045 7.99707C22.3455 7.99707 24 6.34253 24 4.30155C24 6.34253 25.6545 7.99707 27.6955 7.99707Z" fill="#2C2C2C"/>
</svg>
