<svg width="154" height="154" viewBox="0 0 154 154" fill="none" xmlns="http://www.w3.org/2000/svg">
<g filter="url(#filter0_g_2859_66936)">
<path d="M127 76.999C127 104.613 104.614 126.999 77 126.999C49.3858 126.999 27 104.613 27 76.999C27 49.3848 49.3858 26.999 77 26.999C104.614 26.999 127 49.3848 127 76.999ZM31.005 76.999C31.005 102.401 51.5977 122.994 77 122.994C102.402 122.994 122.995 102.401 122.995 76.999C122.995 51.5967 102.402 31.004 77 31.004C51.5977 31.004 31.005 51.5967 31.005 76.999Z" fill="url(#paint0_linear_2859_66936)" fill-opacity="0.2"/>
</g>
<g opacity="0.3" filter="url(#filter1_g_2859_66936)">
<path d="M78.3604 145.166C40.8108 145.822 9.83945 115.913 9.18402 78.3632C8.52859 40.8135 38.4373 9.8422 75.9869 9.18676C113.537 8.53133 144.508 38.44 145.163 75.9897C145.819 113.539 115.91 144.511 78.3604 145.166ZM76.0567 13.1846C40.715 13.8014 12.5649 42.9517 13.1818 78.2934C13.7987 113.635 42.9489 141.785 78.2907 141.168C113.632 140.551 141.782 111.401 141.166 76.0594C140.549 40.7177 111.398 12.5677 76.0567 13.1846Z" fill="url(#paint1_linear_2859_66936)"/>
</g>
<g filter="url(#filter2_d_2859_66936)">
<path d="M117 77C117 99.0914 99.0914 117 77 117C54.9086 117 37 99.0914 37 77C37 54.9086 54.9086 37 77 37C99.0914 37 117 54.9086 117 77Z" fill="white"/>
</g>
<path d="M77 0C119.526 0 154 34.4741 154 77C154 119.526 119.526 154 77 154C34.4741 154 0 119.526 0 77C0 34.4741 34.4741 0 77 0ZM77 149.973C117.302 149.973 149.973 117.302 149.973 77C149.973 36.6982 117.302 4.0271 77 4.0271C36.6982 4.0271 4.0271 36.6982 4.0271 77C4.0271 117.302 36.6982 149.973 77 149.973Z" fill="url(#paint2_linear_2859_66936)"/>
<path d="M151.986 77C153.098 77 154.003 77.9017 153.974 79.0134C153.727 88.4389 151.751 97.745 148.139 106.467C144.269 115.809 138.597 124.297 131.447 131.447C124.297 138.597 115.809 144.269 106.467 148.139C97.1245 152.008 87.1118 154 77 154C66.8882 154 56.8754 152.008 47.5334 148.139C38.1913 144.269 29.7029 138.597 22.5528 131.447C15.4027 124.297 9.73089 115.809 5.86127 106.467C2.24868 97.745 0.272851 88.4389 0.0263249 79.0134C-0.00275106 77.9017 0.901497 77 2.01355 77C3.1256 77 4.0242 77.9017 4.05488 79.0133C4.30042 87.9099 6.17162 96.6926 9.58183 104.926C13.2491 113.779 18.6242 121.823 25.4004 128.6C32.1765 135.376 40.221 140.751 49.0745 144.418C57.928 148.085 67.4171 149.973 77 149.973C86.5829 149.973 96.072 148.085 104.926 144.418C113.779 140.751 121.823 135.376 128.6 128.6C135.376 121.823 140.751 113.779 144.418 104.926C147.828 96.6926 149.7 87.9099 149.945 79.0133C149.976 77.9017 150.874 77 151.986 77Z" fill="url(#paint3_linear_2859_66936)"/>
<g filter="url(#filter3_d_2859_66936)">
<path d="M76.9531 59.085C78.8624 68.2256 86.0596 75.4234 95.2002 77.333C86.06 79.2426 78.8627 86.4398 76.9531 95.5801C75.0435 86.4395 67.8458 79.2423 58.7051 77.333C67.8461 75.4237 75.0438 68.226 76.9531 59.085Z" fill="url(#paint4_linear_2859_66936)" stroke="url(#paint5_linear_2859_66936)"/>
<path d="M62 55.8408C62.9663 58.7412 65.2579 61.0334 68.1582 62C65.2582 62.9665 62.9665 65.2582 62 68.1582C61.0334 65.2579 58.7412 62.9663 55.8408 62C58.7415 61.0336 61.0336 58.7415 62 55.8408Z" fill="url(#paint6_linear_2859_66936)" stroke="url(#paint7_linear_2859_66936)"/>
<path d="M92 85.8408C92.9663 88.7412 95.2579 91.0334 98.1582 92C95.2582 92.9665 92.9665 95.2582 92 98.1582C91.0334 95.2579 88.7412 92.9663 85.8408 92C88.7415 91.0336 91.0336 88.7415 92 85.8408Z" fill="url(#paint8_linear_2859_66936)" stroke="url(#paint9_linear_2859_66936)"/>
<g filter="url(#filter4_d_2859_66936)">
<path d="M77 64.9896C77 71.6227 82.3773 77 89.0104 77C82.3773 77 77 82.3773 77 89.0104C77 82.3773 71.6227 77 64.9896 77C71.6227 77 77 71.6227 77 64.9896Z" fill="white"/>
</g>
</g>
<g opacity="0.25" filter="url(#filter5_g_2859_66936)">
<path d="M78.0449 136.011C45.4651 136.579 18.5929 110.629 18.0242 78.0494C17.4555 45.4696 43.4057 18.5974 75.9855 18.0287C108.565 17.46 135.438 43.4102 136.006 75.99C136.575 108.57 110.625 135.442 78.0449 136.011ZM76.0555 22.0342C45.6878 22.5643 21.4996 47.6118 22.0297 77.9795C22.5598 108.347 47.6073 132.535 77.975 132.005C108.343 131.475 132.531 106.428 132.001 76.06C131.471 45.6923 106.423 21.5041 76.0555 22.0342Z" fill="url(#paint10_linear_2859_66936)"/>
</g>
<defs>
<filter id="filter0_g_2859_66936" x="23" y="22.999" width="108" height="108" filterUnits="userSpaceOnUse" color-interpolation-filters="sRGB">
<feFlood flood-opacity="0" result="BackgroundImageFix"/>
<feBlend mode="normal" in="SourceGraphic" in2="BackgroundImageFix" result="shape"/>
<feTurbulence type="fractalNoise" baseFrequency="0.125 0.125" numOctaves="3" seed="4061" />
<feDisplacementMap in="shape" scale="8" xChannelSelector="R" yChannelSelector="G" result="displacedImage" width="100%" height="100%" />
<feMerge result="effect1_texture_2859_66936">
<feMergeNode in="displacedImage"/>
</feMerge>
</filter>
<filter id="filter1_g_2859_66936" x="5.17188" y="5.17578" width="144" height="144.001" filterUnits="userSpaceOnUse" color-interpolation-filters="sRGB">
<feFlood flood-opacity="0" result="BackgroundImageFix"/>
<feBlend mode="normal" in="SourceGraphic" in2="BackgroundImageFix" result="shape"/>
<feTurbulence type="fractalNoise" baseFrequency="0.095238097012042999 0.095238097012042999" numOctaves="3" seed="7499" />
<feDisplacementMap in="shape" scale="8" xChannelSelector="R" yChannelSelector="G" result="displacedImage" width="100%" height="100%" />
<feMerge result="effect1_texture_2859_66936">
<feMergeNode in="displacedImage"/>
</feMerge>
</filter>
<filter id="filter2_d_2859_66936" x="25" y="25" width="104" height="104" filterUnits="userSpaceOnUse" color-interpolation-filters="sRGB">
<feFlood flood-opacity="0" result="BackgroundImageFix"/>
<feColorMatrix in="SourceAlpha" type="matrix" values="0 0 0 0 0 0 0 0 0 0 0 0 0 0 0 0 0 0 127 0" result="hardAlpha"/>
<feOffset/>
<feGaussianBlur stdDeviation="6"/>
<feComposite in2="hardAlpha" operator="out"/>
<feColorMatrix type="matrix" values="0 0 0 0 0.407843 0 0 0 0 0.321569 0 0 0 0 0.431373 0 0 0 0.3 0"/>
<feBlend mode="normal" in2="BackgroundImageFix" result="effect1_dropShadow_2859_66936"/>
<feBlend mode="normal" in="SourceGraphic" in2="effect1_dropShadow_2859_66936" result="shape"/>
</filter>
<filter id="filter3_d_2859_66936" x="39.9531" y="40" width="74.0469" height="74.333" filterUnits="userSpaceOnUse" color-interpolation-filters="sRGB">
<feFlood flood-opacity="0" result="BackgroundImageFix"/>
<feColorMatrix in="SourceAlpha" type="matrix" values="0 0 0 0 0 0 0 0 0 0 0 0 0 0 0 0 0 0 127 0" result="hardAlpha"/>
<feOffset/>
<feGaussianBlur stdDeviation="6"/>
<feComposite in2="hardAlpha" operator="out"/>
<feColorMatrix type="matrix" values="0 0 0 0 0.180392 0 0 0 0 0.145098 0 0 0 0 0.227451 0 0 0 0.3 0"/>
<feBlend mode="normal" in2="BackgroundImageFix" result="effect1_dropShadow_2859_66936"/>
<feBlend mode="normal" in="SourceGraphic" in2="effect1_dropShadow_2859_66936" result="shape"/>
</filter>
<filter id="filter4_d_2859_66936" x="62.9922" y="62.9893" width="28.0156" height="28.0215" filterUnits="userSpaceOnUse" color-interpolation-filters="sRGB">
<feFlood flood-opacity="0" result="BackgroundImageFix"/>
<feColorMatrix in="SourceAlpha" type="matrix" values="0 0 0 0 0 0 0 0 0 0 0 0 0 0 0 0 0 0 127 0" result="hardAlpha"/>
<feOffset/>
<feGaussianBlur stdDeviation="1"/>
<feComposite in2="hardAlpha" operator="out"/>
<feColorMatrix type="matrix" values="0 0 0 0 1 0 0 0 0 0.980377 0 0 0 0 0.956848 0 0 0 1 0"/>
<feBlend mode="normal" in2="BackgroundImageFix" result="effect1_dropShadow_2859_66936"/>
<feBlend mode="normal" in="SourceGraphic" in2="effect1_dropShadow_2859_66936" result="shape"/>
</filter>
<filter id="filter5_g_2859_66936" x="14.0156" y="14.0195" width="126" height="126" filterUnits="userSpaceOnUse" color-interpolation-filters="sRGB">
<feFlood flood-opacity="0" result="BackgroundImageFix"/>
<feBlend mode="normal" in="SourceGraphic" in2="BackgroundImageFix" result="shape"/>
<feTurbulence type="fractalNoise" baseFrequency="0.10526315867900848 0.10526315867900848" numOctaves="3" seed="7533" />
<feDisplacementMap in="shape" scale="8" xChannelSelector="R" yChannelSelector="G" result="displacedImage" width="100%" height="100%" />
<feMerge result="effect1_texture_2859_66936">
<feMergeNode in="displacedImage"/>
</feMerge>
</filter>
<linearGradient id="paint0_linear_2859_66936" x1="27" y1="76.999" x2="127" y2="76.999" gradientUnits="userSpaceOnUse">
<stop stop-color="#947863"/>
<stop offset="0.504808" stop-color="#E9DDD4"/>
<stop offset="1" stop-color="#947863"/>
</linearGradient>
<linearGradient id="paint1_linear_2859_66936" x1="75.9869" y1="9.18677" x2="78.3605" y2="145.166" gradientUnits="userSpaceOnUse">
<stop stop-color="#7C5E4F"/>
<stop offset="0.5" stop-color="#E2D3CA"/>
<stop offset="1" stop-color="#7C5E4F"/>
</linearGradient>
<linearGradient id="paint2_linear_2859_66936" x1="0" y1="77" x2="154" y2="77" gradientUnits="userSpaceOnUse">
<stop stop-color="#DADADA"/>
<stop offset="0.5" stop-color="#B4B4B4"/>
<stop offset="1" stop-color="#DADADA"/>
</linearGradient>
<linearGradient id="paint3_linear_2859_66936" x1="1.15621e-06" y1="77" x2="154" y2="77" gradientUnits="userSpaceOnUse">
<stop stop-color="#2E253A"/>
<stop offset="0.5" stop-color="#68526E"/>
<stop offset="1" stop-color="#2E253A"/>
</linearGradient>
<linearGradient id="paint4_linear_2859_66936" x1="76.9531" y1="102.333" x2="76.9531" y2="52.333" gradientUnits="userSpaceOnUse">
<stop stop-color="#2E253A"/>
<stop offset="0.5" stop-color="#68526E"/>
<stop offset="1" stop-color="#2E253A"/>
</linearGradient>
<linearGradient id="paint5_linear_2859_66936" x1="76.9531" y1="99.833" x2="76.9531" y2="54.833" gradientUnits="userSpaceOnUse">
<stop stop-color="#2E253A"/>
<stop offset="0.5" stop-color="#68526E"/>
<stop offset="1" stop-color="#2E253A"/>
</linearGradient>
<linearGradient id="paint6_linear_2859_66936" x1="62" y1="72" x2="62" y2="52" gradientUnits="userSpaceOnUse">
<stop stop-color="#2E253A"/>
<stop offset="0.504808" stop-color="#68526E"/>
<stop offset="1" stop-color="#2E253A"/>
</linearGradient>
<linearGradient id="paint7_linear_2859_66936" x1="62" y1="72" x2="62" y2="52" gradientUnits="userSpaceOnUse">
<stop stop-color="#2E253A"/>
<stop offset="0.5" stop-color="#68526E"/>
<stop offset="1" stop-color="#2E253A"/>
</linearGradient>
<linearGradient id="paint8_linear_2859_66936" x1="92" y1="82" x2="92" y2="102" gradientUnits="userSpaceOnUse">
<stop stop-color="#2E253A"/>
<stop offset="0.5" stop-color="#68526E"/>
<stop offset="1" stop-color="#2E253A"/>
</linearGradient>
<linearGradient id="paint9_linear_2859_66936" x1="92" y1="82" x2="92" y2="102" gradientUnits="userSpaceOnUse">
<stop stop-color="#2E253A"/>
<stop offset="0.5" stop-color="#68526E"/>
<stop offset="1" stop-color="#2E253A"/>
</linearGradient>
<linearGradient id="paint10_linear_2859_66936" x1="75.9855" y1="18.0287" x2="78.0449" y2="136.011" gradientUnits="userSpaceOnUse">
<stop stop-color="#8D6C5C"/>
<stop offset="0.5" stop-color="#D6C2B3"/>
<stop offset="1" stop-color="#8D6C5C"/>
</linearGradient>
</defs>
</svg>
