<svg width="156" height="156" viewBox="0 0 156 156" fill="none" xmlns="http://www.w3.org/2000/svg">
<path d="M78 1C120.526 1 155 35.4741 155 78C155 120.526 120.526 155 78 155C35.4741 155 1 120.526 1 78C1 35.4741 35.4741 1 78 1ZM78 150.973C118.302 150.973 150.973 118.302 150.973 78C150.973 37.6982 118.302 5.0271 78 5.0271C37.6982 5.0271 5.0271 37.6982 5.0271 78C5.0271 118.302 37.6982 150.973 78 150.973Z" fill="url(#paint0_linear_2880_66048)"/>
<g filter="url(#filter0_g_2880_66048)">
<path d="M128 77.999C128 105.613 105.614 127.999 78 127.999C50.3858 127.999 28 105.613 28 77.999C28 50.3848 50.3858 27.999 78 27.999C105.614 27.999 128 50.3848 128 77.999ZM32.005 77.999C32.005 103.401 52.5977 123.994 78 123.994C103.402 123.994 123.995 103.401 123.995 77.999C123.995 52.5967 103.402 32.004 78 32.004C52.5977 32.004 32.005 52.5967 32.005 77.999Z" fill="url(#paint1_linear_2880_66048)" fill-opacity="0.2"/>
</g>
<g opacity="0.25" filter="url(#filter1_g_2880_66048)">
<path d="M79.0449 137.012C46.4651 137.58 19.5929 111.63 19.0242 79.0504C18.4555 46.4706 44.4057 19.5984 76.9855 19.0297C109.565 18.461 136.438 44.4112 137.006 76.991C137.575 109.571 111.625 136.443 79.0449 137.012ZM77.0555 23.0352C46.6878 23.5653 22.4996 48.6128 23.0297 78.9805C23.5598 109.348 48.6073 133.536 78.975 133.006C109.343 132.476 133.531 107.429 133.001 77.0609C132.471 46.6933 107.423 22.5051 77.0555 23.0352Z" fill="url(#paint2_linear_2880_66048)"/>
</g>
<g filter="url(#filter2_d_2880_66048)">
<path d="M146 78C146 115.555 115.555 146 78 146C40.4446 146 10 115.555 10 78C10 40.4446 40.4446 10 78 10C115.555 10 146 40.4446 146 78Z" fill="white"/>
</g>
<g filter="url(#filter3_d_2880_66048)">
<path d="M78 41.0448C78 61.4546 94.5454 78 114.955 78C94.5454 78 78 94.5454 78 114.955C78 94.5454 61.4546 78 41.0448 78C61.4546 78 78 61.4546 78 41.0448Z" fill="url(#paint3_linear_2880_66048)"/>
<path d="M78 47.1611C80.593 62.9467 93.0525 75.4066 108.838 78C93.0528 80.5933 80.5933 93.0528 78 108.838C75.4066 93.0525 62.9467 80.593 47.1611 78C62.947 75.407 75.407 62.947 78 47.1611Z" stroke="url(#paint4_linear_2880_66048)"/>
</g>
<path d="M78 54.903C78 67.6591 88.3409 78 101.097 78C88.3409 78 78 88.3409 78 101.097C78 88.3409 67.6591 78 54.903 78C67.6591 78 78 67.6591 78 54.903Z" fill="white"/>
<defs>
<filter id="filter0_g_2880_66048" x="24" y="23.999" width="108" height="108" filterUnits="userSpaceOnUse" color-interpolation-filters="sRGB">
<feFlood flood-opacity="0" result="BackgroundImageFix"/>
<feBlend mode="normal" in="SourceGraphic" in2="BackgroundImageFix" result="shape"/>
<feTurbulence type="fractalNoise" baseFrequency="0.125 0.125" numOctaves="3" seed="4061" />
<feDisplacementMap in="shape" scale="8" xChannelSelector="R" yChannelSelector="G" result="displacedImage" width="100%" height="100%" />
<feMerge result="effect1_texture_2880_66048">
<feMergeNode in="displacedImage"/>
</feMerge>
</filter>
<filter id="filter1_g_2880_66048" x="15.0156" y="15.0205" width="126" height="126" filterUnits="userSpaceOnUse" color-interpolation-filters="sRGB">
<feFlood flood-opacity="0" result="BackgroundImageFix"/>
<feBlend mode="normal" in="SourceGraphic" in2="BackgroundImageFix" result="shape"/>
<feTurbulence type="fractalNoise" baseFrequency="0.10526315867900848 0.10526315867900848" numOctaves="3" seed="7533" />
<feDisplacementMap in="shape" scale="8" xChannelSelector="R" yChannelSelector="G" result="displacedImage" width="100%" height="100%" />
<feMerge result="effect1_texture_2880_66048">
<feMergeNode in="displacedImage"/>
</feMerge>
</filter>
<filter id="filter2_d_2880_66048" x="0" y="0" width="156" height="156" filterUnits="userSpaceOnUse" color-interpolation-filters="sRGB">
<feFlood flood-opacity="0" result="BackgroundImageFix"/>
<feColorMatrix in="SourceAlpha" type="matrix" values="0 0 0 0 0 0 0 0 0 0 0 0 0 0 0 0 0 0 127 0" result="hardAlpha"/>
<feOffset/>
<feGaussianBlur stdDeviation="5"/>
<feComposite in2="hardAlpha" operator="out"/>
<feColorMatrix type="matrix" values="0 0 0 0 0.639216 0 0 0 0 0.54902 0 0 0 0 0.482353 0 0 0 0.25 0"/>
<feBlend mode="normal" in2="BackgroundImageFix" result="effect1_dropShadow_2880_66048"/>
<feBlend mode="normal" in="SourceGraphic" in2="effect1_dropShadow_2880_66048" result="shape"/>
</filter>
<filter id="filter3_d_2880_66048" x="31.0469" y="31.0449" width="93.9062" height="93.9102" filterUnits="userSpaceOnUse" color-interpolation-filters="sRGB">
<feFlood flood-opacity="0" result="BackgroundImageFix"/>
<feColorMatrix in="SourceAlpha" type="matrix" values="0 0 0 0 0 0 0 0 0 0 0 0 0 0 0 0 0 0 127 0" result="hardAlpha"/>
<feOffset/>
<feGaussianBlur stdDeviation="5"/>
<feComposite in2="hardAlpha" operator="out"/>
<feColorMatrix type="matrix" values="0 0 0 0 0.639216 0 0 0 0 0.54902 0 0 0 0 0.482353 0 0 0 0.25 0"/>
<feBlend mode="normal" in2="BackgroundImageFix" result="effect1_dropShadow_2880_66048"/>
<feBlend mode="normal" in="SourceGraphic" in2="effect1_dropShadow_2880_66048" result="shape"/>
</filter>
<linearGradient id="paint0_linear_2880_66048" x1="1" y1="78" x2="155" y2="78" gradientUnits="userSpaceOnUse">
<stop stop-color="#DADADA"/>
<stop offset="0.5" stop-color="#B4B4B4"/>
<stop offset="1" stop-color="#DADADA"/>
</linearGradient>
<linearGradient id="paint1_linear_2880_66048" x1="28" y1="77.999" x2="128" y2="77.999" gradientUnits="userSpaceOnUse">
<stop stop-color="#947863"/>
<stop offset="0.504808" stop-color="#E9DDD4"/>
<stop offset="1" stop-color="#947863"/>
</linearGradient>
<linearGradient id="paint2_linear_2880_66048" x1="76.9855" y1="19.0297" x2="79.0449" y2="137.012" gradientUnits="userSpaceOnUse">
<stop stop-color="#8D6C5C"/>
<stop offset="0.5" stop-color="#D6C2B3"/>
<stop offset="1" stop-color="#8D6C5C"/>
</linearGradient>
<linearGradient id="paint3_linear_2880_66048" x1="114.239" y1="78" x2="42.2391" y2="78" gradientUnits="userSpaceOnUse">
<stop stop-color="#7C5E4F"/>
<stop offset="0.5" stop-color="#E2D3CA"/>
<stop offset="1" stop-color="#7C5E4F"/>
</linearGradient>
<linearGradient id="paint4_linear_2880_66048" x1="78" y1="38" x2="78" y2="118" gradientUnits="userSpaceOnUse">
<stop stop-color="#7C5E4F"/>
<stop offset="0.5" stop-color="#E2D3CA"/>
<stop offset="1" stop-color="#7C5E4F"/>
</linearGradient>
</defs>
</svg>
