<svg width="28" height="28" viewBox="0 0 28 28" fill="none" xmlns="http://www.w3.org/2000/svg">
<path d="M14 4.70703C15.262 9.19887 18.8003 12.7377 23.292 14C18.8006 15.2622 15.2622 18.8006 14 23.292C12.7377 18.8003 9.19887 15.262 4.70703 14C9.19917 12.7379 12.7379 9.19917 14 4.70703Z" fill="url(#paint0_linear_2925_73790)" stroke="url(#paint1_linear_2925_73790)"/>
<path d="M22.5996 19.7539C23.1681 21.0156 24.1837 22.0309 25.4453 22.5996C24.1838 23.1682 23.1682 24.1838 22.5996 25.4453C22.0309 24.1837 21.0156 23.1681 19.7539 22.5996C21.0157 22.031 22.031 21.0157 22.5996 19.7539Z" fill="url(#paint2_linear_2925_73790)" stroke="url(#paint3_linear_2925_73790)"/>
<path d="M5.59961 2.75391C6.16808 4.0156 7.18374 5.03092 8.44531 5.59961C7.18382 6.16818 6.16818 7.18382 5.59961 8.44531C5.03092 7.18374 4.0156 6.16808 2.75391 5.59961C4.01568 5.03102 5.03102 4.01568 5.59961 2.75391Z" fill="url(#paint4_linear_2925_73790)" stroke="url(#paint5_linear_2925_73790)"/>
<g filter="url(#filter0_d_2925_73790)">
<path d="M14 7.30187C14 11.0011 16.9989 14 20.6981 14C16.9989 14 14 16.9989 14 20.6981C14 16.9989 11.0011 14 7.30187 14C11.0011 14 14 11.0011 14 7.30187Z" fill="white"/>
</g>
<defs>
<filter id="filter0_d_2925_73790" x="5.30469" y="5.30273" width="17.3906" height="17.3945" filterUnits="userSpaceOnUse" color-interpolation-filters="sRGB">
<feFlood flood-opacity="0" result="BackgroundImageFix"/>
<feColorMatrix in="SourceAlpha" type="matrix" values="0 0 0 0 0 0 0 0 0 0 0 0 0 0 0 0 0 0 127 0" result="hardAlpha"/>
<feOffset/>
<feGaussianBlur stdDeviation="1"/>
<feComposite in2="hardAlpha" operator="out"/>
<feColorMatrix type="matrix" values="0 0 0 0 1 0 0 0 0 0.980377 0 0 0 0 0.956848 0 0 0 1 0"/>
<feBlend mode="normal" in2="BackgroundImageFix" result="effect1_dropShadow_2925_73790"/>
<feBlend mode="normal" in="SourceGraphic" in2="effect1_dropShadow_2925_73790" result="shape"/>
</filter>
<linearGradient id="paint0_linear_2925_73790" x1="14" y1="28" x2="14" y2="0" gradientUnits="userSpaceOnUse">
<stop stop-color="#2E253A"/>
<stop offset="0.5" stop-color="#68526E"/>
<stop offset="1" stop-color="#2E253A"/>
</linearGradient>
<linearGradient id="paint1_linear_2925_73790" x1="14" y1="26.6" x2="14" y2="1.4" gradientUnits="userSpaceOnUse">
<stop stop-color="#2E253A"/>
<stop offset="0.5" stop-color="#68526E"/>
<stop offset="1" stop-color="#2E253A"/>
</linearGradient>
<linearGradient id="paint2_linear_2925_73790" x1="22.6" y1="28.2" x2="22.6" y2="17" gradientUnits="userSpaceOnUse">
<stop stop-color="#2E253A"/>
<stop offset="0.504808" stop-color="#68526E"/>
<stop offset="1" stop-color="#2E253A"/>
</linearGradient>
<linearGradient id="paint3_linear_2925_73790" x1="22.6" y1="28.2" x2="22.6" y2="17" gradientUnits="userSpaceOnUse">
<stop stop-color="#2E253A"/>
<stop offset="0.5" stop-color="#68526E"/>
<stop offset="1" stop-color="#2E253A"/>
</linearGradient>
<linearGradient id="paint4_linear_2925_73790" x1="5.6" y1="0" x2="5.6" y2="11.2" gradientUnits="userSpaceOnUse">
<stop stop-color="#2E253A"/>
<stop offset="0.5" stop-color="#68526E"/>
<stop offset="1" stop-color="#2E253A"/>
</linearGradient>
<linearGradient id="paint5_linear_2925_73790" x1="5.6" y1="0" x2="5.6" y2="11.2" gradientUnits="userSpaceOnUse">
<stop stop-color="#2E253A"/>
<stop offset="0.5" stop-color="#68526E"/>
<stop offset="1" stop-color="#2E253A"/>
</linearGradient>
</defs>
</svg>
