<svg width="28" height="28" viewBox="0 0 28 28" fill="none" xmlns="http://www.w3.org/2000/svg">
<path d="M14 1.06569C14 8.20911 19.7909 14 26.9343 14C19.7909 14 14 19.7909 14 26.9343C14 19.7909 8.20911 14 1.06569 14C8.20911 14 14 8.20911 14 1.06569Z" fill="url(#paint0_linear_2925_73642)"/>
<g filter="url(#filter0_d_2925_73642)">
<path d="M14 7.30187C14 11.0011 16.9989 14 20.6981 14C16.9989 14 14 16.9989 14 20.6981C14 16.9989 11.0011 14 7.30187 14C11.0011 14 14 11.0011 14 7.30187Z" fill="white"/>
</g>
<defs>
<filter id="filter0_d_2925_73642" x="5.30469" y="5.30176" width="17.3906" height="17.3965" filterUnits="userSpaceOnUse" color-interpolation-filters="sRGB">
<feFlood flood-opacity="0" result="BackgroundImageFix"/>
<feColorMatrix in="SourceAlpha" type="matrix" values="0 0 0 0 0 0 0 0 0 0 0 0 0 0 0 0 0 0 127 0" result="hardAlpha"/>
<feOffset/>
<feGaussianBlur stdDeviation="1"/>
<feComposite in2="hardAlpha" operator="out"/>
<feColorMatrix type="matrix" values="0 0 0 0 1 0 0 0 0 0.980377 0 0 0 0 0.956848 0 0 0 1 0"/>
<feBlend mode="normal" in2="BackgroundImageFix" result="effect1_dropShadow_2925_73642"/>
<feBlend mode="normal" in="SourceGraphic" in2="effect1_dropShadow_2925_73642" result="shape"/>
</filter>
<linearGradient id="paint0_linear_2925_73642" x1="14" y1="0" x2="14" y2="28" gradientUnits="userSpaceOnUse">
<stop stop-color="#7C5E4F"/>
<stop offset="0.5" stop-color="#E2D3CA"/>
<stop offset="1" stop-color="#7C5E4F"/>
</linearGradient>
</defs>
</svg>
