<svg width="928" height="67" viewBox="0 0 928 67" fill="none" xmlns="http://www.w3.org/2000/svg">
<g filter="url(#filter0_d_3030_84469)">
<path d="M20.6447 8.09766L41.3553 8.09766L56 22.7423L56 43.453L41.3553 58.0977L20.6447 58.0977L6 43.453L6 22.7423L20.6447 8.09766Z" fill="url(#paint0_linear_3030_84469)"/>
<path d="M41.1484 8.59766L55.5 22.9492L55.5 43.2461L41.1484 57.5977L20.8516 57.5977L6.5 43.2461L6.5 22.9492L20.8516 8.59766L41.1484 8.59766Z" stroke="url(#paint1_linear_3030_84469)"/>
</g>
<g filter="url(#filter1_d_3030_84469)">
<path d="M320.172 8.09766L341.672 20.5977V45.5977L320.172 58.0977L298.672 45.5977V20.5977L320.172 8.09766Z" fill="url(#paint2_linear_3030_84469)"/>
<path d="M341.172 20.8848V45.3096L320.172 57.5186L299.172 45.3096V20.8848L320.172 8.67578L341.172 20.8848Z" stroke="url(#paint3_linear_3030_84469)"/>
</g>
<g filter="url(#filter2_d_3030_84469)">
<path d="M609.344 10.0007C609.344 22.7568 619.685 33.0977 632.441 33.0977C619.685 33.0977 609.344 43.4385 609.344 56.1946C609.344 43.4385 599.003 33.0977 586.247 33.0977C599.003 33.0977 609.344 22.7568 609.344 10.0007Z" fill="url(#paint4_linear_3030_84469)"/>
<path d="M609.344 14.8496C611.253 23.9903 618.45 31.188 627.591 33.0977C618.451 35.0072 611.253 42.2045 609.344 51.3447C607.434 42.2042 600.236 35.0069 591.096 33.0977C600.237 31.1883 607.434 23.9906 609.344 14.8496Z" stroke="url(#paint5_linear_3030_84469)"/>
</g>
<path d="M902.016 14.8496C903.925 23.9903 911.122 31.188 920.263 33.0977C911.122 35.0072 903.925 42.2045 902.016 51.3447C900.106 42.2042 892.908 35.0069 883.768 33.0977C892.909 31.1883 900.106 23.9906 902.016 14.8496Z" fill="white" stroke="url(#paint6_linear_3030_84469)"/>
<path d="M887.016 11.9385C887.982 14.8389 890.274 17.131 893.174 18.0977C890.274 19.0642 887.982 21.3559 887.016 24.2559C886.049 21.3556 883.757 19.064 880.856 18.0977C883.757 17.1312 886.049 14.8391 887.016 11.9385Z" fill="url(#paint7_linear_3030_84469)" stroke="url(#paint8_linear_3030_84469)"/>
<path d="M917.016 41.9385C917.982 44.8389 920.274 47.131 923.174 48.0977C920.274 49.0642 917.982 51.3559 917.016 54.2559C916.049 51.3556 913.757 49.064 910.856 48.0977C913.757 47.1312 916.049 44.8391 917.016 41.9385Z" fill="url(#paint9_linear_3030_84469)" stroke="url(#paint10_linear_3030_84469)"/>
<defs>
<filter id="filter0_d_3030_84469" x="0" y="2.09766" width="62" height="62" filterUnits="userSpaceOnUse" color-interpolation-filters="sRGB">
<feFlood flood-opacity="0" result="BackgroundImageFix"/>
<feColorMatrix in="SourceAlpha" type="matrix" values="0 0 0 0 0 0 0 0 0 0 0 0 0 0 0 0 0 0 127 0" result="hardAlpha"/>
<feOffset/>
<feGaussianBlur stdDeviation="3"/>
<feComposite in2="hardAlpha" operator="out"/>
<feColorMatrix type="matrix" values="0 0 0 0 0.942308 0 0 0 0 0.942308 0 0 0 0 0.942308 0 0 0 0.15 0"/>
<feBlend mode="normal" in2="BackgroundImageFix" result="effect1_dropShadow_3030_84469"/>
<feBlend mode="normal" in="SourceGraphic" in2="effect1_dropShadow_3030_84469" result="shape"/>
</filter>
<filter id="filter1_d_3030_84469" x="290.672" y="0.0976562" width="59" height="66" filterUnits="userSpaceOnUse" color-interpolation-filters="sRGB">
<feFlood flood-opacity="0" result="BackgroundImageFix"/>
<feColorMatrix in="SourceAlpha" type="matrix" values="0 0 0 0 0 0 0 0 0 0 0 0 0 0 0 0 0 0 127 0" result="hardAlpha"/>
<feOffset/>
<feGaussianBlur stdDeviation="4"/>
<feComposite in2="hardAlpha" operator="out"/>
<feColorMatrix type="matrix" values="0 0 0 0 0.85098 0 0 0 0 0.85098 0 0 0 0 0.85098 0 0 0 0.2 0"/>
<feBlend mode="normal" in2="BackgroundImageFix" result="effect1_dropShadow_3030_84469"/>
<feBlend mode="normal" in="SourceGraphic" in2="effect1_dropShadow_3030_84469" result="shape"/>
</filter>
<filter id="filter2_d_3030_84469" x="576.25" y="0" width="66.1875" height="66.1953" filterUnits="userSpaceOnUse" color-interpolation-filters="sRGB">
<feFlood flood-opacity="0" result="BackgroundImageFix"/>
<feColorMatrix in="SourceAlpha" type="matrix" values="0 0 0 0 0 0 0 0 0 0 0 0 0 0 0 0 0 0 127 0" result="hardAlpha"/>
<feOffset/>
<feGaussianBlur stdDeviation="5"/>
<feComposite in2="hardAlpha" operator="out"/>
<feColorMatrix type="matrix" values="0 0 0 0 0.639216 0 0 0 0 0.54902 0 0 0 0 0.482353 0 0 0 0.25 0"/>
<feBlend mode="normal" in2="BackgroundImageFix" result="effect1_dropShadow_3030_84469"/>
<feBlend mode="normal" in="SourceGraphic" in2="effect1_dropShadow_3030_84469" result="shape"/>
</filter>
<linearGradient id="paint0_linear_3030_84469" x1="56" y1="33.0375" x2="6" y2="33.1586" gradientUnits="userSpaceOnUse">
<stop stop-color="#947863"/>
<stop offset="0.495192" stop-color="#E9DDD4"/>
<stop offset="1" stop-color="#947863"/>
</linearGradient>
<linearGradient id="paint1_linear_3030_84469" x1="31" y1="8.09766" x2="31" y2="58.0977" gradientUnits="userSpaceOnUse">
<stop stop-color="#947863"/>
<stop offset="0.5" stop-color="#E9DDD4"/>
<stop offset="1" stop-color="#947863"/>
</linearGradient>
<linearGradient id="paint2_linear_3030_84469" x1="341.672" y1="33.0977" x2="298.672" y2="33.0977" gradientUnits="userSpaceOnUse">
<stop stop-color="#8D6C5C"/>
<stop offset="0.495192" stop-color="#D6C2B3"/>
<stop offset="1" stop-color="#8D6C5C"/>
</linearGradient>
<linearGradient id="paint3_linear_3030_84469" x1="320.172" y1="8.09766" x2="320.172" y2="58.0977" gradientUnits="userSpaceOnUse">
<stop stop-color="#8D6C5C"/>
<stop offset="0.5" stop-color="#D6C2B3"/>
<stop offset="1" stop-color="#8D6C5C"/>
</linearGradient>
<linearGradient id="paint4_linear_3030_84469" x1="631.993" y1="33.0977" x2="586.993" y2="33.0977" gradientUnits="userSpaceOnUse">
<stop stop-color="#7C5E4F"/>
<stop offset="0.5" stop-color="#E2D3CA"/>
<stop offset="1" stop-color="#7C5E4F"/>
</linearGradient>
<linearGradient id="paint5_linear_3030_84469" x1="609.344" y1="8.09766" x2="609.344" y2="58.0977" gradientUnits="userSpaceOnUse">
<stop stop-color="#7C5E4F"/>
<stop offset="0.5" stop-color="#E2D3CA"/>
<stop offset="1" stop-color="#7C5E4F"/>
</linearGradient>
<linearGradient id="paint6_linear_3030_84469" x1="902.016" y1="10.5977" x2="902.016" y2="55.5977" gradientUnits="userSpaceOnUse">
<stop stop-color="#2E253A"/>
<stop offset="0.5" stop-color="#68526E"/>
<stop offset="1" stop-color="#2E253A"/>
</linearGradient>
<linearGradient id="paint7_linear_3030_84469" x1="887.016" y1="8.09766" x2="887.016" y2="28.0977" gradientUnits="userSpaceOnUse">
<stop stop-color="#2E253A"/>
<stop offset="0.504808" stop-color="#68526E"/>
<stop offset="1" stop-color="#2E253A"/>
</linearGradient>
<linearGradient id="paint8_linear_3030_84469" x1="887.016" y1="8.09766" x2="887.016" y2="28.0977" gradientUnits="userSpaceOnUse">
<stop stop-color="#2E253A"/>
<stop offset="0.5" stop-color="#68526E"/>
<stop offset="1" stop-color="#2E253A"/>
</linearGradient>
<linearGradient id="paint9_linear_3030_84469" x1="917.016" y1="58.0977" x2="917.016" y2="38.0977" gradientUnits="userSpaceOnUse">
<stop stop-color="#2E253A"/>
<stop offset="0.5" stop-color="#68526E"/>
<stop offset="1" stop-color="#2E253A"/>
</linearGradient>
<linearGradient id="paint10_linear_3030_84469" x1="917.016" y1="38.0977" x2="917.016" y2="58.0977" gradientUnits="userSpaceOnUse">
<stop stop-color="#2E253A"/>
<stop offset="0.5" stop-color="#68526E"/>
<stop offset="1" stop-color="#2E253A"/>
</linearGradient>
</defs>
</svg>
