<svg width="44" height="44" viewBox="0 0 44 44" fill="none" xmlns="http://www.w3.org/2000/svg">
<g filter="url(#filter0_d_3050_85074)">
<path d="M21.6953 12.4565C21.6953 17.559 25.8317 21.6953 30.9341 21.6953C25.8317 21.6953 21.6953 25.8317 21.6953 30.9341C21.6953 25.8317 17.559 21.6953 12.4565 21.6953C17.559 21.6953 21.6953 17.559 21.6953 12.4565Z" fill="white"/>
<path d="M15.6953 11.9998C15.6953 14.0408 17.3499 15.6953 19.3908 15.6953C17.3499 15.6953 15.6953 17.3499 15.6953 19.3908C15.6953 17.3499 14.0408 15.6953 11.9998 15.6953C14.0408 15.6953 15.6953 14.0408 15.6953 11.9998Z" fill="white"/>
<path d="M27.6953 23.9998C27.6953 26.0408 29.3499 27.6953 31.3908 27.6953C29.3499 27.6953 27.6953 29.3499 27.6953 31.3908C27.6953 29.3499 26.0408 27.6953 23.9998 27.6953C26.0408 27.6953 27.6953 26.0408 27.6953 23.9998Z" fill="white"/>
</g>
<defs>
<filter id="filter0_d_3050_85074" x="-0.304688" y="-0.304688" width="44" height="44" filterUnits="userSpaceOnUse" color-interpolation-filters="sRGB">
<feFlood flood-opacity="0" result="BackgroundImageFix"/>
<feColorMatrix in="SourceAlpha" type="matrix" values="0 0 0 0 0 0 0 0 0 0 0 0 0 0 0 0 0 0 127 0" result="hardAlpha"/>
<feOffset/>
<feGaussianBlur stdDeviation="6"/>
<feComposite in2="hardAlpha" operator="out"/>
<feColorMatrix type="matrix" values="0 0 0 0 1 0 0 0 0 0.980392 0 0 0 0 0.956863 0 0 0 1 0"/>
<feBlend mode="normal" in2="BackgroundImageFix" result="effect1_dropShadow_3050_85074"/>
<feBlend mode="normal" in="SourceGraphic" in2="effect1_dropShadow_3050_85074" result="shape"/>
</filter>
</defs>
</svg>
