<svg width="157" height="157" viewBox="0 0 157 157" fill="none" xmlns="http://www.w3.org/2000/svg">
<g filter="url(#filter0_g_2859_66938)">
<path d="M128.328 78.3311C128.328 105.945 105.942 128.331 78.3281 128.331C50.7139 128.331 28.3281 105.945 28.3281 78.3311C28.3281 50.7168 50.7139 28.3311 78.3281 28.3311C105.942 28.3311 128.328 50.7168 128.328 78.3311ZM32.3331 78.3311C32.3331 103.733 52.9258 124.326 78.3281 124.326C103.73 124.326 124.323 103.733 124.323 78.3311C124.323 52.9287 103.73 32.3361 78.3281 32.3361C52.9258 32.3361 32.3331 52.9287 32.3331 78.3311Z" fill="url(#paint0_linear_2859_66938)" fill-opacity="0.2"/>
</g>
<g opacity="0.3" filter="url(#filter1_g_2859_66938)">
<path d="M79.6886 146.498C42.1389 147.154 11.1676 117.245 10.5121 79.6952C9.85671 42.1456 39.7654 11.1742 77.315 10.5188C114.865 9.86336 145.836 39.772 146.491 77.3217C147.147 114.871 117.238 145.843 79.6886 146.498ZM77.3848 14.5166C42.0431 15.1335 13.893 44.2837 14.5099 79.6254C15.1268 114.967 44.2771 143.117 79.6188 142.5C114.961 141.883 143.111 112.733 142.494 77.3915C141.877 42.0497 112.727 13.8997 77.3848 14.5166Z" fill="url(#paint1_linear_2859_66938)"/>
</g>
<g filter="url(#filter2_d_2859_66938)">
<path d="M118.328 78.332C118.328 100.423 100.42 118.332 78.3281 118.332C56.2367 118.332 38.3281 100.423 38.3281 78.332C38.3281 56.2406 56.2367 38.332 78.3281 38.332C100.42 38.332 118.328 56.2406 118.328 78.332Z" fill="white"/>
</g>
<path d="M78.3281 1.33203C120.854 1.33203 155.328 35.8061 155.328 78.332C155.328 120.858 120.854 155.332 78.3281 155.332C35.8022 155.332 1.32813 120.858 1.32813 78.332C1.32813 35.8061 35.8022 1.33203 78.3281 1.33203ZM78.3281 151.305C118.63 151.305 151.301 118.634 151.301 78.332C151.301 38.0302 118.63 5.35913 78.3281 5.35913C38.0263 5.35913 5.35522 38.0302 5.35522 78.332C5.35522 118.634 38.0263 151.305 78.3281 151.305Z" fill="url(#paint2_linear_2859_66938)"/>
<path d="M76.9881 1.34368C119.508 0.6015 154.578 34.4687 155.32 76.9881C156.062 119.508 122.195 154.578 79.6758 155.32C37.1563 156.062 2.08584 122.195 1.34366 79.6758C0.601485 37.1563 34.4687 2.08586 76.9881 1.34368ZM79.6055 151.294C119.901 150.59 151.997 117.354 151.294 77.0584C150.59 36.7627 117.354 4.6668 77.0584 5.37017C36.7627 6.07353 4.66679 39.3098 5.37015 79.6055C6.07351 119.901 39.3098 151.997 79.6055 151.294Z" fill="url(#paint3_linear_2859_66938)"/>
<g filter="url(#filter3_d_2859_66938)">
<path d="M78.2812 60.417C80.1905 69.5577 87.3878 76.7554 96.5283 78.665C87.3881 80.5746 80.1908 87.7719 78.2812 96.9121C76.3716 87.7716 69.1739 80.5743 60.0332 78.665C69.1742 76.7557 76.3719 69.558 78.2812 60.417Z" fill="url(#paint4_linear_2859_66938)" stroke="url(#paint5_linear_2859_66938)"/>
<path d="M63.3281 57.1729C64.2945 60.0732 66.5861 62.3654 69.4863 63.332C66.5864 64.2985 64.2946 66.5903 63.3281 69.4902C62.3615 66.59 60.0693 64.2984 57.1689 63.332C60.0696 62.3656 62.3617 60.0735 63.3281 57.1729Z" fill="url(#paint6_linear_2859_66938)" stroke="url(#paint7_linear_2859_66938)"/>
<path d="M93.3281 87.1729C94.2945 90.0732 96.5861 92.3654 99.4863 93.332C96.5864 94.2985 94.2946 96.5903 93.3281 99.4902C92.3615 96.59 90.0693 94.2984 87.1689 93.332C90.0696 92.3656 92.3617 90.0735 93.3281 87.1729Z" fill="url(#paint8_linear_2859_66938)" stroke="url(#paint9_linear_2859_66938)"/>
</g>
<g filter="url(#filter4_d_2859_66938)">
<path d="M78.3281 69.0932C78.3281 74.1957 82.4645 78.332 87.5669 78.332C82.4645 78.332 78.3281 82.4684 78.3281 87.5708C78.3281 82.4684 74.1918 78.332 69.0893 78.332C74.1918 78.332 78.3281 74.1957 78.3281 69.0932Z" fill="white"/>
</g>
<g opacity="0.25" filter="url(#filter5_g_2859_66938)">
<path d="M79.3731 137.343C46.7932 137.911 19.921 111.961 19.3523 79.3815C18.7837 46.8016 44.7338 19.9294 77.3137 19.3607C109.894 18.7921 136.766 44.7422 137.334 77.3221C137.903 109.902 111.953 136.774 79.3731 137.343ZM77.3836 23.3662C47.0159 23.8963 22.8278 48.9439 23.3578 79.3115C23.8879 109.679 48.9355 133.867 79.3031 133.337C109.671 132.807 133.859 107.76 133.329 77.392C132.799 47.0243 107.751 22.8362 77.3836 23.3662Z" fill="url(#paint10_linear_2859_66938)"/>
</g>
<defs>
<filter id="filter0_g_2859_66938" x="24.3281" y="24.3311" width="108" height="108" filterUnits="userSpaceOnUse" color-interpolation-filters="sRGB">
<feFlood flood-opacity="0" result="BackgroundImageFix"/>
<feBlend mode="normal" in="SourceGraphic" in2="BackgroundImageFix" result="shape"/>
<feTurbulence type="fractalNoise" baseFrequency="0.125 0.125" numOctaves="3" seed="4061" />
<feDisplacementMap in="shape" scale="8" xChannelSelector="R" yChannelSelector="G" result="displacedImage" width="100%" height="100%" />
<feMerge result="effect1_texture_2859_66938">
<feMergeNode in="displacedImage"/>
</feMerge>
</filter>
<filter id="filter1_g_2859_66938" x="6.5" y="6.50781" width="144" height="144.001" filterUnits="userSpaceOnUse" color-interpolation-filters="sRGB">
<feFlood flood-opacity="0" result="BackgroundImageFix"/>
<feBlend mode="normal" in="SourceGraphic" in2="BackgroundImageFix" result="shape"/>
<feTurbulence type="fractalNoise" baseFrequency="0.095238097012042999 0.095238097012042999" numOctaves="3" seed="7499" />
<feDisplacementMap in="shape" scale="8" xChannelSelector="R" yChannelSelector="G" result="displacedImage" width="100%" height="100%" />
<feMerge result="effect1_texture_2859_66938">
<feMergeNode in="displacedImage"/>
</feMerge>
</filter>
<filter id="filter2_d_2859_66938" x="26.3281" y="26.332" width="104" height="104" filterUnits="userSpaceOnUse" color-interpolation-filters="sRGB">
<feFlood flood-opacity="0" result="BackgroundImageFix"/>
<feColorMatrix in="SourceAlpha" type="matrix" values="0 0 0 0 0 0 0 0 0 0 0 0 0 0 0 0 0 0 127 0" result="hardAlpha"/>
<feOffset/>
<feGaussianBlur stdDeviation="6"/>
<feComposite in2="hardAlpha" operator="out"/>
<feColorMatrix type="matrix" values="0 0 0 0 0.407843 0 0 0 0 0.321569 0 0 0 0 0.431373 0 0 0 0.3 0"/>
<feBlend mode="normal" in2="BackgroundImageFix" result="effect1_dropShadow_2859_66938"/>
<feBlend mode="normal" in="SourceGraphic" in2="effect1_dropShadow_2859_66938" result="shape"/>
</filter>
<filter id="filter3_d_2859_66938" x="41.3281" y="41.332" width="74" height="74" filterUnits="userSpaceOnUse" color-interpolation-filters="sRGB">
<feFlood flood-opacity="0" result="BackgroundImageFix"/>
<feColorMatrix in="SourceAlpha" type="matrix" values="0 0 0 0 0 0 0 0 0 0 0 0 0 0 0 0 0 0 127 0" result="hardAlpha"/>
<feOffset/>
<feGaussianBlur stdDeviation="6"/>
<feComposite in2="hardAlpha" operator="out"/>
<feColorMatrix type="matrix" values="0 0 0 0 0.180392 0 0 0 0 0.145098 0 0 0 0 0.227451 0 0 0 0.3 0"/>
<feBlend mode="normal" in2="BackgroundImageFix" result="effect1_dropShadow_2859_66938"/>
<feBlend mode="normal" in="SourceGraphic" in2="effect1_dropShadow_2859_66938" result="shape"/>
</filter>
<filter id="filter4_d_2859_66938" x="63.0859" y="63.0928" width="30.4844" height="30.4785" filterUnits="userSpaceOnUse" color-interpolation-filters="sRGB">
<feFlood flood-opacity="0" result="BackgroundImageFix"/>
<feColorMatrix in="SourceAlpha" type="matrix" values="0 0 0 0 0 0 0 0 0 0 0 0 0 0 0 0 0 0 127 0" result="hardAlpha"/>
<feOffset/>
<feGaussianBlur stdDeviation="3"/>
<feComposite in2="hardAlpha" operator="out"/>
<feColorMatrix type="matrix" values="0 0 0 0 1 0 0 0 0 0.980377 0 0 0 0 0.956848 0 0 0 1 0"/>
<feBlend mode="normal" in2="BackgroundImageFix" result="effect1_dropShadow_2859_66938"/>
<feBlend mode="normal" in="SourceGraphic" in2="effect1_dropShadow_2859_66938" result="shape"/>
</filter>
<filter id="filter5_g_2859_66938" x="15.3438" y="15.3516" width="126" height="126" filterUnits="userSpaceOnUse" color-interpolation-filters="sRGB">
<feFlood flood-opacity="0" result="BackgroundImageFix"/>
<feBlend mode="normal" in="SourceGraphic" in2="BackgroundImageFix" result="shape"/>
<feTurbulence type="fractalNoise" baseFrequency="0.10526315867900848 0.10526315867900848" numOctaves="3" seed="7533" />
<feDisplacementMap in="shape" scale="8" xChannelSelector="R" yChannelSelector="G" result="displacedImage" width="100%" height="100%" />
<feMerge result="effect1_texture_2859_66938">
<feMergeNode in="displacedImage"/>
</feMerge>
</filter>
<linearGradient id="paint0_linear_2859_66938" x1="28.3281" y1="78.3311" x2="128.328" y2="78.3311" gradientUnits="userSpaceOnUse">
<stop stop-color="#947863"/>
<stop offset="0.504808" stop-color="#E9DDD4"/>
<stop offset="1" stop-color="#947863"/>
</linearGradient>
<linearGradient id="paint1_linear_2859_66938" x1="77.315" y1="10.5188" x2="79.6886" y2="146.498" gradientUnits="userSpaceOnUse">
<stop stop-color="#7C5E4F"/>
<stop offset="0.5" stop-color="#E2D3CA"/>
<stop offset="1" stop-color="#7C5E4F"/>
</linearGradient>
<linearGradient id="paint2_linear_2859_66938" x1="1.32812" y1="78.332" x2="155.328" y2="78.332" gradientUnits="userSpaceOnUse">
<stop stop-color="#DADADA"/>
<stop offset="0.5" stop-color="#B4B4B4"/>
<stop offset="1" stop-color="#DADADA"/>
</linearGradient>
<linearGradient id="paint3_linear_2859_66938" x1="79.6758" y1="155.32" x2="76.9881" y2="1.34368" gradientUnits="userSpaceOnUse">
<stop stop-color="#2E253A"/>
<stop offset="0.5" stop-color="#68526E"/>
<stop offset="1" stop-color="#2E253A"/>
</linearGradient>
<linearGradient id="paint4_linear_2859_66938" x1="103.281" y1="78.665" x2="53.2812" y2="78.665" gradientUnits="userSpaceOnUse">
<stop stop-color="#2E253A"/>
<stop offset="0.5" stop-color="#68526E"/>
<stop offset="1" stop-color="#2E253A"/>
</linearGradient>
<linearGradient id="paint5_linear_2859_66938" x1="100.781" y1="78.665" x2="55.7812" y2="78.665" gradientUnits="userSpaceOnUse">
<stop stop-color="#68526E"/>
<stop offset="0.5" stop-color="#2E253A"/>
<stop offset="1" stop-color="#68526E"/>
</linearGradient>
<linearGradient id="paint6_linear_2859_66938" x1="73.3281" y1="63.332" x2="53.3281" y2="63.332" gradientUnits="userSpaceOnUse">
<stop stop-color="#2E253A"/>
<stop offset="0.504808" stop-color="#68526E"/>
<stop offset="1" stop-color="#2E253A"/>
</linearGradient>
<linearGradient id="paint7_linear_2859_66938" x1="73.3281" y1="63.332" x2="53.3281" y2="63.332" gradientUnits="userSpaceOnUse">
<stop stop-color="#2E253A"/>
<stop offset="0.5" stop-color="#68526E"/>
<stop offset="1" stop-color="#2E253A"/>
</linearGradient>
<linearGradient id="paint8_linear_2859_66938" x1="83.3281" y1="93.332" x2="103.328" y2="93.332" gradientUnits="userSpaceOnUse">
<stop stop-color="#2E253A"/>
<stop offset="0.5" stop-color="#68526E"/>
<stop offset="1" stop-color="#2E253A"/>
</linearGradient>
<linearGradient id="paint9_linear_2859_66938" x1="103.328" y1="93.332" x2="83.3281" y2="93.332" gradientUnits="userSpaceOnUse">
<stop stop-color="#2E253A"/>
<stop offset="0.5" stop-color="#68526E"/>
<stop offset="1" stop-color="#2E253A"/>
</linearGradient>
<linearGradient id="paint10_linear_2859_66938" x1="77.3137" y1="19.3607" x2="79.3731" y2="137.343" gradientUnits="userSpaceOnUse">
<stop stop-color="#8D6C5C"/>
<stop offset="0.5" stop-color="#D6C2B3"/>
<stop offset="1" stop-color="#8D6C5C"/>
</linearGradient>
</defs>
</svg>
