<svg width="154" height="154" viewBox="0 0 154 154" fill="none" xmlns="http://www.w3.org/2000/svg">
<g filter="url(#filter0_g_2880_66202)">
<path d="M127 76.999C127 104.613 104.614 126.999 77 126.999C49.3858 126.999 27 104.613 27 76.999C27 49.3848 49.3858 26.999 77 26.999C104.614 26.999 127 49.3848 127 76.999ZM31.005 76.999C31.005 102.401 51.5977 122.994 77 122.994C102.402 122.994 122.995 102.401 122.995 76.999C122.995 51.5967 102.402 31.004 77 31.004C51.5977 31.004 31.005 51.5967 31.005 76.999Z" fill="url(#paint0_linear_2880_66202)" fill-opacity="0.2"/>
</g>
<g opacity="0.3" filter="url(#filter1_g_2880_66202)">
<path d="M78.3604 145.166C40.8108 145.822 9.83945 115.913 9.18402 78.3632C8.52859 40.8135 38.4373 9.8422 75.9869 9.18676C113.537 8.53133 144.508 38.44 145.163 75.9897C145.819 113.539 115.91 144.511 78.3604 145.166ZM76.0567 13.1846C40.715 13.8014 12.5649 42.9517 13.1818 78.2934C13.7987 113.635 42.9489 141.785 78.2907 141.168C113.632 140.551 141.782 111.401 141.166 76.0594C140.549 40.7177 111.398 12.5677 76.0567 13.1846Z" fill="url(#paint1_linear_2880_66202)"/>
</g>
<g opacity="0.25" filter="url(#filter2_g_2880_66202)">
<path d="M78.0449 136.012C45.4651 136.58 18.5929 110.63 18.0242 78.0504C17.4555 45.4706 43.4057 18.5984 75.9855 18.0297C108.565 17.461 135.438 43.4112 136.006 75.991C136.575 108.571 110.625 135.443 78.0449 136.012ZM76.0555 22.0352C45.6878 22.5653 21.4996 47.6128 22.0297 77.9805C22.5598 108.348 47.6073 132.536 77.975 132.006C108.343 131.476 132.531 106.429 132.001 76.0609C131.471 45.6933 106.423 21.5051 76.0555 22.0352Z" fill="url(#paint2_linear_2880_66202)"/>
</g>
<path d="M154 77C154 119.526 119.526 154 77 154C34.4741 154 0 119.526 0 77C0 34.4741 34.4741 0 77 0C119.526 0 154 34.4741 154 77Z" fill="white"/>
<g filter="url(#filter3_d_2880_66202)">
<path d="M77 41.9268C79.7968 59.9575 94.0416 74.2028 112.072 77C94.042 79.7972 79.7972 94.042 77 112.072C74.2028 94.0416 59.9575 79.7968 41.9268 77C59.9578 74.2031 74.2031 59.9578 77 41.9268Z" fill="url(#paint3_linear_2880_66202)" stroke="url(#paint4_linear_2880_66202)"/>
<path d="M50 37.4902C51.5187 43.6404 56.3587 48.481 62.5088 50C56.359 51.5189 51.5189 56.359 50 62.5088C48.481 56.3587 43.6404 51.5187 37.4902 50C43.6407 48.4813 48.4813 43.6407 50 37.4902Z" fill="url(#paint5_linear_2880_66202)" stroke="url(#paint6_linear_2880_66202)"/>
<path d="M104 91.4902C105.519 97.6404 110.359 102.481 116.509 104C110.359 105.519 105.519 110.359 104 116.509C102.481 110.359 97.6404 105.519 91.4902 104C97.6407 102.481 102.481 97.6407 104 91.4902Z" fill="url(#paint7_linear_2880_66202)" stroke="url(#paint8_linear_2880_66202)"/>
</g>
<g filter="url(#filter4_d_2880_66202)">
<path d="M77 49.2836C77 64.591 89.409 77 104.716 77C89.409 77 77 89.409 77 104.716C77 89.409 64.591 77 49.2836 77C64.591 77 77 64.591 77 49.2836Z" fill="white"/>
</g>
<defs>
<filter id="filter0_g_2880_66202" x="23" y="22.999" width="108" height="108" filterUnits="userSpaceOnUse" color-interpolation-filters="sRGB">
<feFlood flood-opacity="0" result="BackgroundImageFix"/>
<feBlend mode="normal" in="SourceGraphic" in2="BackgroundImageFix" result="shape"/>
<feTurbulence type="fractalNoise" baseFrequency="0.125 0.125" numOctaves="3" seed="4061" />
<feDisplacementMap in="shape" scale="8" xChannelSelector="R" yChannelSelector="G" result="displacedImage" width="100%" height="100%" />
<feMerge result="effect1_texture_2880_66202">
<feMergeNode in="displacedImage"/>
</feMerge>
</filter>
<filter id="filter1_g_2880_66202" x="5.17188" y="5.17578" width="144" height="144.001" filterUnits="userSpaceOnUse" color-interpolation-filters="sRGB">
<feFlood flood-opacity="0" result="BackgroundImageFix"/>
<feBlend mode="normal" in="SourceGraphic" in2="BackgroundImageFix" result="shape"/>
<feTurbulence type="fractalNoise" baseFrequency="0.095238097012042999 0.095238097012042999" numOctaves="3" seed="7499" />
<feDisplacementMap in="shape" scale="8" xChannelSelector="R" yChannelSelector="G" result="displacedImage" width="100%" height="100%" />
<feMerge result="effect1_texture_2880_66202">
<feMergeNode in="displacedImage"/>
</feMerge>
</filter>
<filter id="filter2_g_2880_66202" x="14.0156" y="14.0205" width="126" height="126" filterUnits="userSpaceOnUse" color-interpolation-filters="sRGB">
<feFlood flood-opacity="0" result="BackgroundImageFix"/>
<feBlend mode="normal" in="SourceGraphic" in2="BackgroundImageFix" result="shape"/>
<feTurbulence type="fractalNoise" baseFrequency="0.10526315867900848 0.10526315867900848" numOctaves="3" seed="7533" />
<feDisplacementMap in="shape" scale="8" xChannelSelector="R" yChannelSelector="G" result="displacedImage" width="100%" height="100%" />
<feMerge result="effect1_texture_2880_66202">
<feMergeNode in="displacedImage"/>
</feMerge>
</filter>
<filter id="filter3_d_2880_66202" x="20" y="20" width="114" height="114" filterUnits="userSpaceOnUse" color-interpolation-filters="sRGB">
<feFlood flood-opacity="0" result="BackgroundImageFix"/>
<feColorMatrix in="SourceAlpha" type="matrix" values="0 0 0 0 0 0 0 0 0 0 0 0 0 0 0 0 0 0 127 0" result="hardAlpha"/>
<feOffset/>
<feGaussianBlur stdDeviation="6"/>
<feComposite in2="hardAlpha" operator="out"/>
<feColorMatrix type="matrix" values="0 0 0 0 0.180392 0 0 0 0 0.145098 0 0 0 0 0.227451 0 0 0 0.3 0"/>
<feBlend mode="normal" in2="BackgroundImageFix" result="effect1_dropShadow_2880_66202"/>
<feBlend mode="normal" in="SourceGraphic" in2="effect1_dropShadow_2880_66202" result="shape"/>
</filter>
<filter id="filter4_d_2880_66202" x="43.2812" y="43.2832" width="67.4375" height="67.4336" filterUnits="userSpaceOnUse" color-interpolation-filters="sRGB">
<feFlood flood-opacity="0" result="BackgroundImageFix"/>
<feColorMatrix in="SourceAlpha" type="matrix" values="0 0 0 0 0 0 0 0 0 0 0 0 0 0 0 0 0 0 127 0" result="hardAlpha"/>
<feOffset/>
<feGaussianBlur stdDeviation="3"/>
<feComposite in2="hardAlpha" operator="out"/>
<feColorMatrix type="matrix" values="0 0 0 0 1 0 0 0 0 0.980377 0 0 0 0 0.956848 0 0 0 1 0"/>
<feBlend mode="normal" in2="BackgroundImageFix" result="effect1_dropShadow_2880_66202"/>
<feBlend mode="normal" in="SourceGraphic" in2="effect1_dropShadow_2880_66202" result="shape"/>
</filter>
<linearGradient id="paint0_linear_2880_66202" x1="27" y1="76.999" x2="127" y2="76.999" gradientUnits="userSpaceOnUse">
<stop stop-color="#947863"/>
<stop offset="0.504808" stop-color="#E9DDD4"/>
<stop offset="1" stop-color="#947863"/>
</linearGradient>
<linearGradient id="paint1_linear_2880_66202" x1="75.9869" y1="9.18677" x2="78.3605" y2="145.166" gradientUnits="userSpaceOnUse">
<stop stop-color="#7C5E4F"/>
<stop offset="0.5" stop-color="#E2D3CA"/>
<stop offset="1" stop-color="#7C5E4F"/>
</linearGradient>
<linearGradient id="paint2_linear_2880_66202" x1="75.9855" y1="18.0297" x2="78.0449" y2="136.012" gradientUnits="userSpaceOnUse">
<stop stop-color="#8D6C5C"/>
<stop offset="0.5" stop-color="#D6C2B3"/>
<stop offset="1" stop-color="#8D6C5C"/>
</linearGradient>
<linearGradient id="paint3_linear_2880_66202" x1="122" y1="77" x2="32" y2="77" gradientUnits="userSpaceOnUse">
<stop stop-color="#2E253A"/>
<stop offset="0.5" stop-color="#68526E"/>
<stop offset="1" stop-color="#2E253A"/>
</linearGradient>
<linearGradient id="paint4_linear_2880_66202" x1="117.5" y1="77" x2="36.5" y2="77" gradientUnits="userSpaceOnUse">
<stop stop-color="#68526E"/>
<stop offset="0.5" stop-color="#2E253A"/>
<stop offset="1" stop-color="#68526E"/>
</linearGradient>
<linearGradient id="paint5_linear_2880_66202" x1="68" y1="50" x2="32" y2="50" gradientUnits="userSpaceOnUse">
<stop stop-color="#2E253A"/>
<stop offset="0.504808" stop-color="#68526E"/>
<stop offset="1" stop-color="#2E253A"/>
</linearGradient>
<linearGradient id="paint6_linear_2880_66202" x1="68" y1="50" x2="32" y2="50" gradientUnits="userSpaceOnUse">
<stop stop-color="#2E253A"/>
<stop offset="0.5" stop-color="#68526E"/>
<stop offset="1" stop-color="#2E253A"/>
</linearGradient>
<linearGradient id="paint7_linear_2880_66202" x1="86" y1="104" x2="122" y2="104" gradientUnits="userSpaceOnUse">
<stop stop-color="#2E253A"/>
<stop offset="0.5" stop-color="#68526E"/>
<stop offset="1" stop-color="#2E253A"/>
</linearGradient>
<linearGradient id="paint8_linear_2880_66202" x1="122" y1="104" x2="86" y2="104" gradientUnits="userSpaceOnUse">
<stop stop-color="#2E253A"/>
<stop offset="0.5" stop-color="#68526E"/>
<stop offset="1" stop-color="#2E253A"/>
</linearGradient>
</defs>
</svg>
