<svg width="154" height="154" viewBox="0 0 154 154" fill="none" xmlns="http://www.w3.org/2000/svg">
<path d="M77 0C119.526 0 154 34.4741 154 77C154 119.526 119.526 154 77 154C34.4741 154 0 119.526 0 77C0 34.4741 34.4741 0 77 0ZM77 149.973C117.302 149.973 149.973 117.302 149.973 77C149.973 36.6982 117.302 4.0271 77 4.0271C36.6982 4.0271 4.0271 36.6982 4.0271 77C4.0271 117.302 36.6982 149.973 77 149.973Z" fill="url(#paint0_linear_2866_65900)"/>
<g filter="url(#filter0_d_2866_65900)">
<path d="M76.9531 59.085C78.8624 68.2256 86.0596 75.4234 95.2002 77.333C86.06 79.2426 78.8627 86.4398 76.9531 95.5801C75.0435 86.4395 67.8458 79.2423 58.7051 77.333C67.8461 75.4237 75.0438 68.226 76.9531 59.085Z" fill="url(#paint1_linear_2866_65900)" stroke="url(#paint2_linear_2866_65900)"/>
<path d="M62 55.8408C62.9663 58.7412 65.2579 61.0334 68.1582 62C65.2582 62.9665 62.9665 65.2582 62 68.1582C61.0334 65.2579 58.7412 62.9663 55.8408 62C58.7415 61.0336 61.0336 58.7415 62 55.8408Z" fill="url(#paint3_linear_2866_65900)" stroke="url(#paint4_linear_2866_65900)"/>
<path d="M92 85.8408C92.9663 88.7412 95.2579 91.0334 98.1582 92C95.2582 92.9665 92.9665 95.2582 92 98.1582C91.0334 95.2579 88.7412 92.9663 85.8408 92C88.7415 91.0336 91.0336 88.7415 92 85.8408Z" fill="url(#paint5_linear_2866_65900)" stroke="url(#paint6_linear_2866_65900)"/>
<g filter="url(#filter1_d_2866_65900)">
<path d="M77 63.1418C77 70.7955 83.2045 77 90.8582 77C83.2045 77 77 83.2045 77 90.8582C77 83.2045 70.7955 77 63.1418 77C70.7955 77 77 70.7955 77 63.1418Z" fill="white"/>
</g>
</g>
<path d="M77 9C114.555 9 145 39.4446 145 77C145 114.555 114.555 145 77 145C39.4446 145 9 114.555 9 77C9 39.4446 39.4446 9 77 9ZM77 141.002C112.347 141.002 141.002 112.347 141.002 77C141.002 41.6529 112.347 12.9984 77 12.9984C41.6529 12.9984 12.9984 41.6529 12.9984 77C12.9984 112.347 41.6529 141.002 77 141.002Z" fill="url(#paint7_linear_2866_65900)"/>
<g filter="url(#filter2_d_2866_65900)">
<path d="M77 53.903C77 66.6591 87.3409 77 100.097 77C87.3409 77 77 87.3409 77 100.097C77 87.3409 66.6591 77 53.903 77C66.6591 77 77 66.6591 77 53.903Z" fill="url(#paint8_linear_2866_65900)"/>
</g>
<g filter="url(#filter3_d_2866_65900)">
<path d="M77 63.1418C77 70.7955 83.2045 77 90.8582 77C83.2045 77 77 83.2045 77 90.8582C77 83.2045 70.7955 77 63.1418 77C70.7955 77 77 70.7955 77 63.1418Z" fill="white"/>
</g>
<path d="M77 18C109.585 18 136 44.4152 136 77C136 109.585 109.585 136 77 136C44.4152 136 18 109.585 18 77C18 44.4152 44.4152 18 77 18ZM77 131.994C107.372 131.994 131.994 107.372 131.994 77C131.994 46.6277 107.372 22.0061 77 22.0061C46.6277 22.0061 22.0061 46.6277 22.0061 77C22.0061 107.372 46.6277 131.994 77 131.994Z" fill="url(#paint9_linear_2866_65900)"/>
<g filter="url(#filter4_d_2866_65900)">
<path d="M77.5 52L99 64.5V89.5L77.5 102L56 89.5V64.5L77.5 52Z" fill="url(#paint10_linear_2866_65900)"/>
<path d="M98.5 64.7871V89.2119L77.5 101.421L56.5 89.2119V64.7871L77.5 52.5781L98.5 64.7871Z" stroke="url(#paint11_linear_2866_65900)"/>
</g>
<g filter="url(#filter5_d_2866_65900)">
<path d="M77.5 63.1418C77.5 70.7955 83.7045 77 91.3582 77C83.7045 77 77.5 83.2045 77.5 90.8582C77.5 83.2045 71.2955 77 63.6418 77C71.2955 77 77.5 70.7955 77.5 63.1418Z" fill="white"/>
</g>
<g filter="url(#filter6_d_2866_65900)">
<path d="M127 77C127 104.614 104.614 127 77 127C49.3858 127 27 104.614 27 77C27 49.3858 49.3858 27 77 27C104.614 27 127 49.3858 127 77Z" fill="white"/>
</g>
<g filter="url(#filter7_d_2866_65900)">
<path d="M64.5736 47.001L89.4264 47.001L107 64.5746V89.4274L89.4264 107.001H64.5736L47 89.4274L47 64.5746L64.5736 47.001Z" fill="url(#paint12_linear_2866_65900)"/>
<path d="M89.2197 47.501L106.5 64.7813V89.2207L89.2197 106.501H64.7803L47.5 89.2207L47.5 64.7813L64.7803 47.501L89.2197 47.501Z" stroke="url(#paint13_linear_2866_65900)"/>
</g>
<path d="M77 63.1428C77 70.7965 83.2045 77.001 90.8582 77.001C83.2045 77.001 77 83.2055 77 90.8592C77 83.2055 70.7955 77.001 63.1418 77.001C70.7955 77.001 77 70.7965 77 63.1428Z" fill="white"/>
<defs>
<filter id="filter0_d_2866_65900" x="39.9531" y="40" width="74.0469" height="74.333" filterUnits="userSpaceOnUse" color-interpolation-filters="sRGB">
<feFlood flood-opacity="0" result="BackgroundImageFix"/>
<feColorMatrix in="SourceAlpha" type="matrix" values="0 0 0 0 0 0 0 0 0 0 0 0 0 0 0 0 0 0 127 0" result="hardAlpha"/>
<feOffset/>
<feGaussianBlur stdDeviation="6"/>
<feComposite in2="hardAlpha" operator="out"/>
<feColorMatrix type="matrix" values="0 0 0 0 0.180392 0 0 0 0 0.145098 0 0 0 0 0.227451 0 0 0 0.3 0"/>
<feBlend mode="normal" in2="BackgroundImageFix" result="effect1_dropShadow_2866_65900"/>
<feBlend mode="normal" in="SourceGraphic" in2="effect1_dropShadow_2866_65900" result="shape"/>
</filter>
<filter id="filter1_d_2866_65900" x="61.1406" y="61.1416" width="31.7188" height="31.7168" filterUnits="userSpaceOnUse" color-interpolation-filters="sRGB">
<feFlood flood-opacity="0" result="BackgroundImageFix"/>
<feColorMatrix in="SourceAlpha" type="matrix" values="0 0 0 0 0 0 0 0 0 0 0 0 0 0 0 0 0 0 127 0" result="hardAlpha"/>
<feOffset/>
<feGaussianBlur stdDeviation="1"/>
<feComposite in2="hardAlpha" operator="out"/>
<feColorMatrix type="matrix" values="0 0 0 0 1 0 0 0 0 0.980377 0 0 0 0 0.956848 0 0 0 1 0"/>
<feBlend mode="normal" in2="BackgroundImageFix" result="effect1_dropShadow_2866_65900"/>
<feBlend mode="normal" in="SourceGraphic" in2="effect1_dropShadow_2866_65900" result="shape"/>
</filter>
<filter id="filter2_d_2866_65900" x="43.9062" y="43.9033" width="66.1875" height="66.1934" filterUnits="userSpaceOnUse" color-interpolation-filters="sRGB">
<feFlood flood-opacity="0" result="BackgroundImageFix"/>
<feColorMatrix in="SourceAlpha" type="matrix" values="0 0 0 0 0 0 0 0 0 0 0 0 0 0 0 0 0 0 127 0" result="hardAlpha"/>
<feOffset/>
<feGaussianBlur stdDeviation="5"/>
<feComposite in2="hardAlpha" operator="out"/>
<feColorMatrix type="matrix" values="0 0 0 0 0.639216 0 0 0 0 0.54902 0 0 0 0 0.482353 0 0 0 0.25 0"/>
<feBlend mode="normal" in2="BackgroundImageFix" result="effect1_dropShadow_2866_65900"/>
<feBlend mode="normal" in="SourceGraphic" in2="effect1_dropShadow_2866_65900" result="shape"/>
</filter>
<filter id="filter3_d_2866_65900" x="61.1406" y="61.1416" width="31.7188" height="31.7168" filterUnits="userSpaceOnUse" color-interpolation-filters="sRGB">
<feFlood flood-opacity="0" result="BackgroundImageFix"/>
<feColorMatrix in="SourceAlpha" type="matrix" values="0 0 0 0 0 0 0 0 0 0 0 0 0 0 0 0 0 0 127 0" result="hardAlpha"/>
<feOffset/>
<feGaussianBlur stdDeviation="1"/>
<feComposite in2="hardAlpha" operator="out"/>
<feColorMatrix type="matrix" values="0 0 0 0 1 0 0 0 0 0.980377 0 0 0 0 0.956848 0 0 0 1 0"/>
<feBlend mode="normal" in2="BackgroundImageFix" result="effect1_dropShadow_2866_65900"/>
<feBlend mode="normal" in="SourceGraphic" in2="effect1_dropShadow_2866_65900" result="shape"/>
</filter>
<filter id="filter4_d_2866_65900" x="48" y="44" width="59" height="66" filterUnits="userSpaceOnUse" color-interpolation-filters="sRGB">
<feFlood flood-opacity="0" result="BackgroundImageFix"/>
<feColorMatrix in="SourceAlpha" type="matrix" values="0 0 0 0 0 0 0 0 0 0 0 0 0 0 0 0 0 0 127 0" result="hardAlpha"/>
<feOffset/>
<feGaussianBlur stdDeviation="4"/>
<feComposite in2="hardAlpha" operator="out"/>
<feColorMatrix type="matrix" values="0 0 0 0 0.85098 0 0 0 0 0.85098 0 0 0 0 0.85098 0 0 0 0.2 0"/>
<feBlend mode="normal" in2="BackgroundImageFix" result="effect1_dropShadow_2866_65900"/>
<feBlend mode="normal" in="SourceGraphic" in2="effect1_dropShadow_2866_65900" result="shape"/>
</filter>
<filter id="filter5_d_2866_65900" x="61.6406" y="61.1416" width="31.7188" height="31.7168" filterUnits="userSpaceOnUse" color-interpolation-filters="sRGB">
<feFlood flood-opacity="0" result="BackgroundImageFix"/>
<feColorMatrix in="SourceAlpha" type="matrix" values="0 0 0 0 0 0 0 0 0 0 0 0 0 0 0 0 0 0 127 0" result="hardAlpha"/>
<feOffset/>
<feGaussianBlur stdDeviation="1"/>
<feComposite in2="hardAlpha" operator="out"/>
<feColorMatrix type="matrix" values="0 0 0 0 1 0 0 0 0 0.980377 0 0 0 0 0.956848 0 0 0 1 0"/>
<feBlend mode="normal" in2="BackgroundImageFix" result="effect1_dropShadow_2866_65900"/>
<feBlend mode="normal" in="SourceGraphic" in2="effect1_dropShadow_2866_65900" result="shape"/>
</filter>
<filter id="filter6_d_2866_65900" x="23" y="23" width="108" height="108" filterUnits="userSpaceOnUse" color-interpolation-filters="sRGB">
<feFlood flood-opacity="0" result="BackgroundImageFix"/>
<feColorMatrix in="SourceAlpha" type="matrix" values="0 0 0 0 0 0 0 0 0 0 0 0 0 0 0 0 0 0 127 0" result="hardAlpha"/>
<feOffset/>
<feGaussianBlur stdDeviation="2"/>
<feComposite in2="hardAlpha" operator="out"/>
<feColorMatrix type="matrix" values="0 0 0 0 1 0 0 0 0 1 0 0 0 0 1 0 0 0 0.15 0"/>
<feBlend mode="normal" in2="BackgroundImageFix" result="effect1_dropShadow_2866_65900"/>
<feBlend mode="normal" in="SourceGraphic" in2="effect1_dropShadow_2866_65900" result="shape"/>
</filter>
<filter id="filter7_d_2866_65900" x="41" y="41.001" width="72" height="72" filterUnits="userSpaceOnUse" color-interpolation-filters="sRGB">
<feFlood flood-opacity="0" result="BackgroundImageFix"/>
<feColorMatrix in="SourceAlpha" type="matrix" values="0 0 0 0 0 0 0 0 0 0 0 0 0 0 0 0 0 0 127 0" result="hardAlpha"/>
<feOffset/>
<feGaussianBlur stdDeviation="3"/>
<feComposite in2="hardAlpha" operator="out"/>
<feColorMatrix type="matrix" values="0 0 0 0 0.942308 0 0 0 0 0.942308 0 0 0 0 0.942308 0 0 0 0.15 0"/>
<feBlend mode="normal" in2="BackgroundImageFix" result="effect1_dropShadow_2866_65900"/>
<feBlend mode="normal" in="SourceGraphic" in2="effect1_dropShadow_2866_65900" result="shape"/>
</filter>
<linearGradient id="paint0_linear_2866_65900" x1="0" y1="77" x2="154" y2="77" gradientUnits="userSpaceOnUse">
<stop stop-color="#DADADA"/>
<stop offset="0.5" stop-color="#B4B4B4"/>
<stop offset="1" stop-color="#DADADA"/>
</linearGradient>
<linearGradient id="paint1_linear_2866_65900" x1="76.9531" y1="102.333" x2="76.9531" y2="52.333" gradientUnits="userSpaceOnUse">
<stop stop-color="#2E253A"/>
<stop offset="0.5" stop-color="#68526E"/>
<stop offset="1" stop-color="#2E253A"/>
</linearGradient>
<linearGradient id="paint2_linear_2866_65900" x1="76.9531" y1="99.833" x2="76.9531" y2="54.833" gradientUnits="userSpaceOnUse">
<stop stop-color="#2E253A"/>
<stop offset="0.5" stop-color="#68526E"/>
<stop offset="1" stop-color="#2E253A"/>
</linearGradient>
<linearGradient id="paint3_linear_2866_65900" x1="62" y1="72" x2="62" y2="52" gradientUnits="userSpaceOnUse">
<stop stop-color="#2E253A"/>
<stop offset="0.504808" stop-color="#68526E"/>
<stop offset="1" stop-color="#2E253A"/>
</linearGradient>
<linearGradient id="paint4_linear_2866_65900" x1="62" y1="72" x2="62" y2="52" gradientUnits="userSpaceOnUse">
<stop stop-color="#2E253A"/>
<stop offset="0.5" stop-color="#68526E"/>
<stop offset="1" stop-color="#2E253A"/>
</linearGradient>
<linearGradient id="paint5_linear_2866_65900" x1="92" y1="82" x2="92" y2="102" gradientUnits="userSpaceOnUse">
<stop stop-color="#2E253A"/>
<stop offset="0.5" stop-color="#68526E"/>
<stop offset="1" stop-color="#2E253A"/>
</linearGradient>
<linearGradient id="paint6_linear_2866_65900" x1="92" y1="82" x2="92" y2="102" gradientUnits="userSpaceOnUse">
<stop stop-color="#2E253A"/>
<stop offset="0.5" stop-color="#68526E"/>
<stop offset="1" stop-color="#2E253A"/>
</linearGradient>
<linearGradient id="paint7_linear_2866_65900" x1="9" y1="77" x2="145" y2="77" gradientUnits="userSpaceOnUse">
<stop stop-color="#DADADA"/>
<stop offset="0.5" stop-color="#B4B4B4"/>
<stop offset="1" stop-color="#DADADA"/>
</linearGradient>
<linearGradient id="paint8_linear_2866_65900" x1="77" y1="52" x2="77" y2="102" gradientUnits="userSpaceOnUse">
<stop stop-color="#7C5E4F"/>
<stop offset="0.5" stop-color="#E2D3CA"/>
<stop offset="1" stop-color="#7C5E4F"/>
</linearGradient>
<linearGradient id="paint9_linear_2866_65900" x1="18" y1="77" x2="136" y2="77" gradientUnits="userSpaceOnUse">
<stop stop-color="#DADADA"/>
<stop offset="0.5" stop-color="#B4B4B4"/>
<stop offset="1" stop-color="#DADADA"/>
</linearGradient>
<linearGradient id="paint10_linear_2866_65900" x1="77.5" y1="52" x2="77.5" y2="102" gradientUnits="userSpaceOnUse">
<stop stop-color="#8D6C5C"/>
<stop offset="0.495192" stop-color="#D6C2B3"/>
<stop offset="1" stop-color="#8D6C5C"/>
</linearGradient>
<linearGradient id="paint11_linear_2866_65900" x1="77.5" y1="52" x2="77.5" y2="102" gradientUnits="userSpaceOnUse">
<stop stop-color="#8D6C5C"/>
<stop offset="0.5" stop-color="#D6C2B3"/>
<stop offset="1" stop-color="#8D6C5C"/>
</linearGradient>
<linearGradient id="paint12_linear_2866_65900" x1="107" y1="76.9288" x2="47" y2="77.0741" gradientUnits="userSpaceOnUse">
<stop stop-color="#947863"/>
<stop offset="0.495192" stop-color="#E9DDD4"/>
<stop offset="1" stop-color="#947863"/>
</linearGradient>
<linearGradient id="paint13_linear_2866_65900" x1="77" y1="47.001" x2="77" y2="107.001" gradientUnits="userSpaceOnUse">
<stop stop-color="#947863"/>
<stop offset="0.5" stop-color="#E9DDD4"/>
<stop offset="1" stop-color="#947863"/>
</linearGradient>
</defs>
</svg>
