<svg width="154" height="154" viewBox="0 0 154 154" fill="none" xmlns="http://www.w3.org/2000/svg">
<path d="M77 0C119.526 0 154 34.4741 154 77C154 119.526 119.526 154 77 154C34.4741 154 0 119.526 0 77C0 34.4741 34.4741 0 77 0ZM77 149.973C117.302 149.973 149.973 117.302 149.973 77C149.973 36.6982 117.302 4.0271 77 4.0271C36.6982 4.0271 4.0271 36.6982 4.0271 77C4.0271 117.302 36.6982 149.973 77 149.973Z" fill="url(#paint0_linear_2859_66943)"/>
<path d="M77 9C114.555 9 145 39.4446 145 77C145 114.555 114.555 145 77 145C39.4446 145 9 114.555 9 77C9 39.4446 39.4446 9 77 9ZM77 141.002C112.347 141.002 141.002 112.347 141.002 77C141.002 41.6529 112.347 12.9984 77 12.9984C41.6529 12.9984 12.9984 41.6529 12.9984 77C12.9984 112.347 41.6529 141.002 77 141.002Z" fill="url(#paint1_linear_2859_66943)"/>
<g filter="url(#filter0_g_2859_66943)">
<path d="M127 76.999C127 104.613 104.614 126.999 77 126.999C49.3858 126.999 27 104.613 27 76.999C27 49.3848 49.3858 26.999 77 26.999C104.614 26.999 127 49.3848 127 76.999ZM31.005 76.999C31.005 102.401 51.5977 122.994 77 122.994C102.402 122.994 122.995 102.401 122.995 76.999C122.995 51.5967 102.402 31.004 77 31.004C51.5977 31.004 31.005 51.5967 31.005 76.999Z" fill="url(#paint2_linear_2859_66943)" fill-opacity="0.2"/>
</g>
<g filter="url(#filter1_d_2859_66943)">
<path d="M117 77C117 99.0914 99.0914 117 77 117C54.9086 117 37 99.0914 37 77C37 54.9086 54.9086 37 77 37C99.0914 37 117 54.9086 117 77Z" fill="white"/>
</g>
<path d="M77 18C109.585 18 136 44.4152 136 77C136 109.585 109.585 136 77 136C44.4152 136 18 109.585 18 77C18 44.4152 44.4152 18 77 18ZM77 131.994C107.372 131.994 131.994 107.372 131.994 77C131.994 46.6277 107.372 22.0061 77 22.0061C46.6277 22.0061 22.0061 46.6277 22.0061 77C22.0061 107.372 46.6277 131.994 77 131.994Z" fill="url(#paint3_linear_2859_66943)"/>
<path d="M133.997 77C135.103 77 136.004 77.8971 135.966 79.0027C135.726 86.0675 134.218 93.0375 131.509 99.5783C128.544 106.737 124.198 113.241 118.719 118.719C113.241 124.198 106.737 128.544 99.5783 131.509C92.4201 134.474 84.748 136 77 136C69.252 136 61.5799 134.474 54.4217 131.509C47.2635 128.544 40.7594 124.198 35.2807 118.719C29.802 113.241 25.4561 106.737 22.4911 99.5783C19.7818 93.0375 18.2739 86.0675 18.034 79.0027C17.9964 77.8971 18.8968 77 20.003 77C21.1093 77 22.0023 77.8971 22.0426 79.0026C22.2808 85.5412 23.6843 91.9905 26.1923 98.0452C28.956 104.717 33.0068 110.78 38.1134 115.887C43.2201 120.993 49.2826 125.044 55.9547 127.808C62.6269 130.571 69.7781 131.994 77 131.994C84.2219 131.994 91.3731 130.571 98.0452 127.808C104.717 125.044 110.78 120.993 115.887 115.887C120.993 110.78 125.044 104.717 127.808 98.0453C130.316 91.9905 131.719 85.5412 131.957 79.0026C131.998 77.8971 132.891 77 133.997 77Z" fill="url(#paint4_linear_2859_66943)"/>
<g filter="url(#filter2_d_2859_66943)">
<g filter="url(#filter3_d_2859_66943)">
<path d="M77.5 52L99 64.5V89.5L77.5 102L56 89.5V64.5L77.5 52Z" fill="url(#paint5_linear_2859_66943)"/>
<path d="M98.5 64.7871V89.2119L77.5 101.421L56.5 89.2119V64.7871L77.5 52.5781L98.5 64.7871Z" stroke="url(#paint6_linear_2859_66943)"/>
</g>
<g filter="url(#filter4_d_2859_66943)">
<path d="M77.5 64.9896C77.5 71.6227 82.8773 77 89.5104 77C82.8773 77 77.5 82.3773 77.5 89.0104C77.5 82.3773 72.1227 77 65.4896 77C72.1227 77 77.5 71.6227 77.5 64.9896Z" fill="white"/>
</g>
</g>
<defs>
<filter id="filter0_g_2859_66943" x="23" y="22.999" width="108" height="108" filterUnits="userSpaceOnUse" color-interpolation-filters="sRGB">
<feFlood flood-opacity="0" result="BackgroundImageFix"/>
<feBlend mode="normal" in="SourceGraphic" in2="BackgroundImageFix" result="shape"/>
<feTurbulence type="fractalNoise" baseFrequency="0.125 0.125" numOctaves="3" seed="4061" />
<feDisplacementMap in="shape" scale="8" xChannelSelector="R" yChannelSelector="G" result="displacedImage" width="100%" height="100%" />
<feMerge result="effect1_texture_2859_66943">
<feMergeNode in="displacedImage"/>
</feMerge>
</filter>
<filter id="filter1_d_2859_66943" x="29" y="29" width="96" height="96" filterUnits="userSpaceOnUse" color-interpolation-filters="sRGB">
<feFlood flood-opacity="0" result="BackgroundImageFix"/>
<feColorMatrix in="SourceAlpha" type="matrix" values="0 0 0 0 0 0 0 0 0 0 0 0 0 0 0 0 0 0 127 0" result="hardAlpha"/>
<feOffset/>
<feGaussianBlur stdDeviation="4"/>
<feComposite in2="hardAlpha" operator="out"/>
<feColorMatrix type="matrix" values="0 0 0 0 0.85098 0 0 0 0 0.85098 0 0 0 0 0.85098 0 0 0 0.2 0"/>
<feBlend mode="normal" in2="BackgroundImageFix" result="effect1_dropShadow_2859_66943"/>
<feBlend mode="normal" in="SourceGraphic" in2="effect1_dropShadow_2859_66943" result="shape"/>
</filter>
<filter id="filter2_d_2859_66943" x="48" y="44" width="59" height="66" filterUnits="userSpaceOnUse" color-interpolation-filters="sRGB">
<feFlood flood-opacity="0" result="BackgroundImageFix"/>
<feColorMatrix in="SourceAlpha" type="matrix" values="0 0 0 0 0 0 0 0 0 0 0 0 0 0 0 0 0 0 127 0" result="hardAlpha"/>
<feOffset/>
<feGaussianBlur stdDeviation="4"/>
<feComposite in2="hardAlpha" operator="out"/>
<feColorMatrix type="matrix" values="0 0 0 0 0.85098 0 0 0 0 0.85098 0 0 0 0 0.85098 0 0 0 0.2 0"/>
<feBlend mode="normal" in2="BackgroundImageFix" result="effect1_dropShadow_2859_66943"/>
<feBlend mode="normal" in="SourceGraphic" in2="effect1_dropShadow_2859_66943" result="shape"/>
</filter>
<filter id="filter3_d_2859_66943" x="48" y="44" width="59" height="66" filterUnits="userSpaceOnUse" color-interpolation-filters="sRGB">
<feFlood flood-opacity="0" result="BackgroundImageFix"/>
<feColorMatrix in="SourceAlpha" type="matrix" values="0 0 0 0 0 0 0 0 0 0 0 0 0 0 0 0 0 0 127 0" result="hardAlpha"/>
<feOffset/>
<feGaussianBlur stdDeviation="4"/>
<feComposite in2="hardAlpha" operator="out"/>
<feColorMatrix type="matrix" values="0 0 0 0 0.85098 0 0 0 0 0.85098 0 0 0 0 0.85098 0 0 0 0.2 0"/>
<feBlend mode="normal" in2="BackgroundImageFix" result="effect1_dropShadow_2859_66943"/>
<feBlend mode="normal" in="SourceGraphic" in2="effect1_dropShadow_2859_66943" result="shape"/>
</filter>
<filter id="filter4_d_2859_66943" x="63.4922" y="62.9893" width="28.0156" height="28.0215" filterUnits="userSpaceOnUse" color-interpolation-filters="sRGB">
<feFlood flood-opacity="0" result="BackgroundImageFix"/>
<feColorMatrix in="SourceAlpha" type="matrix" values="0 0 0 0 0 0 0 0 0 0 0 0 0 0 0 0 0 0 127 0" result="hardAlpha"/>
<feOffset/>
<feGaussianBlur stdDeviation="1"/>
<feComposite in2="hardAlpha" operator="out"/>
<feColorMatrix type="matrix" values="0 0 0 0 1 0 0 0 0 0.980377 0 0 0 0 0.956848 0 0 0 1 0"/>
<feBlend mode="normal" in2="BackgroundImageFix" result="effect1_dropShadow_2859_66943"/>
<feBlend mode="normal" in="SourceGraphic" in2="effect1_dropShadow_2859_66943" result="shape"/>
</filter>
<linearGradient id="paint0_linear_2859_66943" x1="0" y1="77" x2="154" y2="77" gradientUnits="userSpaceOnUse">
<stop stop-color="#DADADA"/>
<stop offset="0.5" stop-color="#B4B4B4"/>
<stop offset="1" stop-color="#DADADA"/>
</linearGradient>
<linearGradient id="paint1_linear_2859_66943" x1="9" y1="77" x2="145" y2="77" gradientUnits="userSpaceOnUse">
<stop stop-color="#DADADA"/>
<stop offset="0.5" stop-color="#B4B4B4"/>
<stop offset="1" stop-color="#DADADA"/>
</linearGradient>
<linearGradient id="paint2_linear_2859_66943" x1="27" y1="76.999" x2="127" y2="76.999" gradientUnits="userSpaceOnUse">
<stop stop-color="#947863"/>
<stop offset="0.504808" stop-color="#E9DDD4"/>
<stop offset="1" stop-color="#947863"/>
</linearGradient>
<linearGradient id="paint3_linear_2859_66943" x1="18" y1="77" x2="136" y2="77" gradientUnits="userSpaceOnUse">
<stop stop-color="#DADADA"/>
<stop offset="0.5" stop-color="#B4B4B4"/>
<stop offset="1" stop-color="#DADADA"/>
</linearGradient>
<linearGradient id="paint4_linear_2859_66943" x1="18" y1="77" x2="136" y2="77" gradientUnits="userSpaceOnUse">
<stop stop-color="#8D6C5C"/>
<stop offset="0.5" stop-color="#D6C2B3"/>
<stop offset="1" stop-color="#8D6C5C"/>
</linearGradient>
<linearGradient id="paint5_linear_2859_66943" x1="77.5" y1="52" x2="77.5" y2="102" gradientUnits="userSpaceOnUse">
<stop stop-color="#8D6C5C"/>
<stop offset="0.495192" stop-color="#D6C2B3"/>
<stop offset="1" stop-color="#8D6C5C"/>
</linearGradient>
<linearGradient id="paint6_linear_2859_66943" x1="77.5" y1="52" x2="77.5" y2="102" gradientUnits="userSpaceOnUse">
<stop stop-color="#8D6C5C"/>
<stop offset="0.5" stop-color="#D6C2B3"/>
<stop offset="1" stop-color="#8D6C5C"/>
</linearGradient>
</defs>
</svg>
