<svg width="162" height="162" viewBox="0 0 162 162" fill="none" xmlns="http://www.w3.org/2000/svg">
<g filter="url(#filter0_g_2887_66318)">
<path d="M130.984 80.999C130.984 108.613 108.599 130.999 80.9844 130.999C53.3701 130.999 30.9844 108.613 30.9844 80.999C30.9844 53.3848 53.3701 30.999 80.9844 30.999C108.599 30.999 130.984 53.3848 130.984 80.999ZM34.9894 80.999C34.9894 106.401 55.582 126.994 80.9844 126.994C106.387 126.994 126.979 106.401 126.979 80.999C126.979 55.5967 106.387 35.004 80.9844 35.004C55.582 35.004 34.9894 55.5967 34.9894 80.999Z" fill="url(#paint0_linear_2887_66318)" fill-opacity="0.2"/>
</g>
<g opacity="0.3" filter="url(#filter1_g_2887_66318)">
<path d="M82.3448 149.166C44.7952 149.822 13.8238 119.913 13.1684 82.3632C12.513 44.8135 42.4216 13.8422 79.9713 13.1868C117.521 12.5313 148.492 42.44 149.148 79.9897C149.803 117.539 119.894 148.511 82.3448 149.166ZM80.0411 17.1846C44.6993 17.8014 16.5493 46.9517 17.1662 82.2934C17.7831 117.635 46.9333 145.785 82.275 145.168C117.617 144.551 145.767 115.401 145.15 80.0594C144.533 44.7177 115.383 16.5677 80.0411 17.1846Z" fill="url(#paint1_linear_2887_66318)"/>
</g>
<g opacity="0.25" filter="url(#filter2_g_2887_66318)">
<path d="M82.0293 140.012C49.4495 140.58 22.5773 114.63 22.0086 82.0504C21.4399 49.4706 47.3901 22.5984 79.9699 22.0297C112.55 21.461 139.422 47.4112 139.991 79.991C140.559 112.571 114.609 139.443 82.0293 140.012ZM80.0398 26.0352C49.6722 26.5653 25.484 51.6128 26.0141 81.9805C26.5442 112.348 51.5917 136.536 81.9594 136.006C112.327 135.476 136.515 110.429 135.985 80.0609C135.455 49.6933 110.408 25.5051 80.0398 26.0352Z" fill="url(#paint2_linear_2887_66318)"/>
</g>
<path d="M153.484 81.5C153.484 121.541 121.025 154 80.9844 154C40.9437 154 8.48438 121.541 8.48438 81.5C8.48438 41.4594 40.9437 9 80.9844 9C121.025 9 153.484 41.4594 153.484 81.5Z" fill="white"/>
<g filter="url(#filter3_g_2887_66318)">
<path d="M81 3.99998C123.526 3.99998 158 38.4741 158 81C158 123.526 123.526 158 81 158C38.4741 158 4 123.526 4 81C4 38.4741 38.4741 3.99998 81 3.99998ZM81 150.3C119.273 150.3 150.3 119.273 150.3 81C150.3 42.7267 119.273 11.7 81 11.7C42.7267 11.7 11.7 42.7267 11.7 81C11.7 119.273 42.7267 150.3 81 150.3Z" fill="url(#paint3_linear_2887_66318)"/>
</g>
<g filter="url(#filter4_d_2887_66318)">
<path d="M80.9844 45.9268C83.7812 63.9575 98.026 78.2028 116.057 81C98.0263 83.7972 83.7815 98.042 80.9844 116.072C78.1872 98.0416 63.9419 83.7968 45.9111 81C63.9422 78.2031 78.1875 63.9578 80.9844 45.9268Z" fill="url(#paint4_linear_2887_66318)" stroke="url(#paint5_linear_2887_66318)"/>
<path d="M53.9844 41.4902C55.503 47.6404 60.3431 52.481 66.4932 54C60.3434 55.5189 55.5033 60.359 53.9844 66.5088C52.4654 60.3587 47.6248 55.5187 41.4746 54C47.6251 52.4813 52.4656 47.6407 53.9844 41.4902Z" fill="url(#paint6_linear_2887_66318)" stroke="url(#paint7_linear_2887_66318)"/>
<path d="M107.984 95.4902C109.503 101.64 114.343 106.481 120.493 108C114.343 109.519 109.503 114.359 107.984 120.509C106.465 114.359 101.625 109.519 95.4746 108C101.625 106.481 106.466 101.641 107.984 95.4902Z" fill="url(#paint8_linear_2887_66318)" stroke="url(#paint9_linear_2887_66318)"/>
</g>
<g filter="url(#filter5_d_2887_66318)">
<path d="M80.9844 53.2836C80.9844 68.591 93.3934 81 108.701 81C93.3934 81 80.9844 93.409 80.9844 108.716C80.9844 93.409 68.5753 81 53.268 81C68.5753 81 80.9844 68.591 80.9844 53.2836Z" fill="white"/>
</g>
<defs>
<filter id="filter0_g_2887_66318" x="26.9844" y="26.999" width="108" height="108" filterUnits="userSpaceOnUse" color-interpolation-filters="sRGB">
<feFlood flood-opacity="0" result="BackgroundImageFix"/>
<feBlend mode="normal" in="SourceGraphic" in2="BackgroundImageFix" result="shape"/>
<feTurbulence type="fractalNoise" baseFrequency="0.125 0.125" numOctaves="3" seed="4061" />
<feDisplacementMap in="shape" scale="8" xChannelSelector="R" yChannelSelector="G" result="displacedImage" width="100%" height="100%" />
<feMerge result="effect1_texture_2887_66318">
<feMergeNode in="displacedImage"/>
</feMerge>
</filter>
<filter id="filter1_g_2887_66318" x="9.15625" y="9.17578" width="144" height="144.001" filterUnits="userSpaceOnUse" color-interpolation-filters="sRGB">
<feFlood flood-opacity="0" result="BackgroundImageFix"/>
<feBlend mode="normal" in="SourceGraphic" in2="BackgroundImageFix" result="shape"/>
<feTurbulence type="fractalNoise" baseFrequency="0.095238097012042999 0.095238097012042999" numOctaves="3" seed="7499" />
<feDisplacementMap in="shape" scale="8" xChannelSelector="R" yChannelSelector="G" result="displacedImage" width="100%" height="100%" />
<feMerge result="effect1_texture_2887_66318">
<feMergeNode in="displacedImage"/>
</feMerge>
</filter>
<filter id="filter2_g_2887_66318" x="18" y="18.0205" width="126" height="126" filterUnits="userSpaceOnUse" color-interpolation-filters="sRGB">
<feFlood flood-opacity="0" result="BackgroundImageFix"/>
<feBlend mode="normal" in="SourceGraphic" in2="BackgroundImageFix" result="shape"/>
<feTurbulence type="fractalNoise" baseFrequency="0.10526315867900848 0.10526315867900848" numOctaves="3" seed="7533" />
<feDisplacementMap in="shape" scale="8" xChannelSelector="R" yChannelSelector="G" result="displacedImage" width="100%" height="100%" />
<feMerge result="effect1_texture_2887_66318">
<feMergeNode in="displacedImage"/>
</feMerge>
</filter>
<filter id="filter3_g_2887_66318" x="0" y="0" width="162" height="162" filterUnits="userSpaceOnUse" color-interpolation-filters="sRGB">
<feFlood flood-opacity="0" result="BackgroundImageFix"/>
<feBlend mode="normal" in="SourceGraphic" in2="BackgroundImageFix" result="shape"/>
<feTurbulence type="fractalNoise" baseFrequency="0.086956523358821869 0.086956523358821869" numOctaves="3" seed="9570" />
<feDisplacementMap in="shape" scale="8" xChannelSelector="R" yChannelSelector="G" result="displacedImage" width="100%" height="100%" />
<feMerge result="effect1_texture_2887_66318">
<feMergeNode in="displacedImage"/>
</feMerge>
</filter>
<filter id="filter4_d_2887_66318" x="23.9844" y="24" width="114" height="114" filterUnits="userSpaceOnUse" color-interpolation-filters="sRGB">
<feFlood flood-opacity="0" result="BackgroundImageFix"/>
<feColorMatrix in="SourceAlpha" type="matrix" values="0 0 0 0 0 0 0 0 0 0 0 0 0 0 0 0 0 0 127 0" result="hardAlpha"/>
<feOffset/>
<feGaussianBlur stdDeviation="6"/>
<feComposite in2="hardAlpha" operator="out"/>
<feColorMatrix type="matrix" values="0 0 0 0 0.180392 0 0 0 0 0.145098 0 0 0 0 0.227451 0 0 0 0.3 0"/>
<feBlend mode="normal" in2="BackgroundImageFix" result="effect1_dropShadow_2887_66318"/>
<feBlend mode="normal" in="SourceGraphic" in2="effect1_dropShadow_2887_66318" result="shape"/>
</filter>
<filter id="filter5_d_2887_66318" x="47.2656" y="47.2832" width="67.4375" height="67.4336" filterUnits="userSpaceOnUse" color-interpolation-filters="sRGB">
<feFlood flood-opacity="0" result="BackgroundImageFix"/>
<feColorMatrix in="SourceAlpha" type="matrix" values="0 0 0 0 0 0 0 0 0 0 0 0 0 0 0 0 0 0 127 0" result="hardAlpha"/>
<feOffset/>
<feGaussianBlur stdDeviation="3"/>
<feComposite in2="hardAlpha" operator="out"/>
<feColorMatrix type="matrix" values="0 0 0 0 1 0 0 0 0 0.980377 0 0 0 0 0.956848 0 0 0 1 0"/>
<feBlend mode="normal" in2="BackgroundImageFix" result="effect1_dropShadow_2887_66318"/>
<feBlend mode="normal" in="SourceGraphic" in2="effect1_dropShadow_2887_66318" result="shape"/>
</filter>
<linearGradient id="paint0_linear_2887_66318" x1="30.9844" y1="80.999" x2="130.984" y2="80.999" gradientUnits="userSpaceOnUse">
<stop stop-color="#947863"/>
<stop offset="0.504808" stop-color="#E9DDD4"/>
<stop offset="1" stop-color="#947863"/>
</linearGradient>
<linearGradient id="paint1_linear_2887_66318" x1="79.9713" y1="13.1868" x2="82.3448" y2="149.166" gradientUnits="userSpaceOnUse">
<stop stop-color="#7C5E4F"/>
<stop offset="0.5" stop-color="#E2D3CA"/>
<stop offset="1" stop-color="#7C5E4F"/>
</linearGradient>
<linearGradient id="paint2_linear_2887_66318" x1="79.9699" y1="22.0297" x2="82.0293" y2="140.012" gradientUnits="userSpaceOnUse">
<stop stop-color="#8D6C5C"/>
<stop offset="0.5" stop-color="#D6C2B3"/>
<stop offset="1" stop-color="#8D6C5C"/>
</linearGradient>
<linearGradient id="paint3_linear_2887_66318" x1="81" y1="158" x2="81" y2="3.99998" gradientUnits="userSpaceOnUse">
<stop stop-color="#2E253A"/>
<stop offset="0.5" stop-color="#68526E"/>
<stop offset="1" stop-color="#2E253A"/>
</linearGradient>
<linearGradient id="paint4_linear_2887_66318" x1="125.984" y1="81" x2="35.9844" y2="81" gradientUnits="userSpaceOnUse">
<stop stop-color="#2E253A"/>
<stop offset="0.5" stop-color="#68526E"/>
<stop offset="1" stop-color="#2E253A"/>
</linearGradient>
<linearGradient id="paint5_linear_2887_66318" x1="121.484" y1="81" x2="40.4844" y2="81" gradientUnits="userSpaceOnUse">
<stop stop-color="#68526E"/>
<stop offset="0.5" stop-color="#2E253A"/>
<stop offset="1" stop-color="#68526E"/>
</linearGradient>
<linearGradient id="paint6_linear_2887_66318" x1="71.9844" y1="54" x2="35.9844" y2="54" gradientUnits="userSpaceOnUse">
<stop stop-color="#2E253A"/>
<stop offset="0.504808" stop-color="#68526E"/>
<stop offset="1" stop-color="#2E253A"/>
</linearGradient>
<linearGradient id="paint7_linear_2887_66318" x1="71.9844" y1="54" x2="35.9844" y2="54" gradientUnits="userSpaceOnUse">
<stop stop-color="#2E253A"/>
<stop offset="0.5" stop-color="#68526E"/>
<stop offset="1" stop-color="#2E253A"/>
</linearGradient>
<linearGradient id="paint8_linear_2887_66318" x1="89.9844" y1="108" x2="125.984" y2="108" gradientUnits="userSpaceOnUse">
<stop stop-color="#2E253A"/>
<stop offset="0.5" stop-color="#68526E"/>
<stop offset="1" stop-color="#2E253A"/>
</linearGradient>
<linearGradient id="paint9_linear_2887_66318" x1="125.984" y1="108" x2="89.9844" y2="108" gradientUnits="userSpaceOnUse">
<stop stop-color="#2E253A"/>
<stop offset="0.5" stop-color="#68526E"/>
<stop offset="1" stop-color="#2E253A"/>
</linearGradient>
</defs>
</svg>
