<svg width="154" height="154" viewBox="0 0 154 154" fill="none" xmlns="http://www.w3.org/2000/svg">
<path d="M77 0C119.526 0 154 34.4741 154 77C154 119.526 119.526 154 77 154C34.4741 154 0 119.526 0 77C0 34.4741 34.4741 0 77 0ZM77 149.973C117.302 149.973 149.973 117.302 149.973 77C149.973 36.6982 117.302 4.0271 77 4.0271C36.6982 4.0271 4.0271 36.6982 4.0271 77C4.0271 117.302 36.6982 149.973 77 149.973Z" fill="url(#paint0_linear_2859_66955)"/>
<path d="M77 9C114.555 9 145 39.4446 145 77C145 114.555 114.555 145 77 145C39.4446 145 9 114.555 9 77C9 39.4446 39.4446 9 77 9ZM77 141.002C112.347 141.002 141.002 112.347 141.002 77C141.002 41.6529 112.347 12.9984 77 12.9984C41.6529 12.9984 12.9984 41.6529 12.9984 77C12.9984 112.347 41.6529 141.002 77 141.002Z" fill="url(#paint1_linear_2859_66955)"/>
<path d="M77 18C109.585 18 136 44.4152 136 77C136 109.585 109.585 136 77 136C44.4152 136 18 109.585 18 77C18 44.4152 44.4152 18 77 18ZM77 131.994C107.372 131.994 131.994 107.372 131.994 77C131.994 46.6277 107.372 22.0061 77 22.0061C46.6277 22.0061 22.0061 46.6277 22.0061 77C22.0061 107.372 46.6277 131.994 77 131.994Z" fill="url(#paint2_linear_2859_66955)"/>
<g filter="url(#filter0_d_2859_66955)">
<path d="M117 77C117 99.0914 99.0914 117 77 117C54.9086 117 37 99.0914 37 77C37 54.9086 54.9086 37 77 37C99.0914 37 117 54.9086 117 77Z" fill="white"/>
</g>
<path d="M77 27C104.614 27 127 49.3858 127 77C127 104.614 104.614 127 77 127C49.3858 127 27 104.614 27 77C27 49.3858 49.3858 27 77 27ZM77 122.995C102.402 122.995 122.995 102.402 122.995 77C122.995 51.5977 102.402 31.005 77 31.005C51.5977 31.005 31.005 51.5977 31.005 77C31.005 102.402 51.5977 122.995 77 122.995Z" fill="url(#paint3_linear_2859_66955)"/>
<path d="M87.1484 52.5L101.5 66.8516V87.1484L87.1484 101.5H66.8516L52.5 87.1484V66.8516L66.8516 52.5H87.1484Z" fill="white" stroke="url(#paint4_linear_2859_66955)"/>
<g filter="url(#filter1_d_2859_66955)">
<path d="M77 63.1418C77 70.7955 83.2045 77 90.8582 77C83.2045 77 77 83.2045 77 90.8582C77 83.2045 70.7955 77 63.1418 77C70.7955 77 77 70.7955 77 63.1418Z" fill="white"/>
<path d="M77 66.9062C78.3288 71.8098 82.1894 75.6709 87.0928 77C82.1897 78.329 78.329 82.1897 77 87.0928C75.6709 82.1894 71.8098 78.3288 66.9062 77C71.8101 75.6711 75.6711 71.8101 77 66.9062Z" stroke="url(#paint5_linear_2859_66955)"/>
</g>
<defs>
<filter id="filter0_d_2859_66955" x="33" y="33" width="88" height="88" filterUnits="userSpaceOnUse" color-interpolation-filters="sRGB">
<feFlood flood-opacity="0" result="BackgroundImageFix"/>
<feColorMatrix in="SourceAlpha" type="matrix" values="0 0 0 0 0 0 0 0 0 0 0 0 0 0 0 0 0 0 127 0" result="hardAlpha"/>
<feOffset/>
<feGaussianBlur stdDeviation="2"/>
<feComposite in2="hardAlpha" operator="out"/>
<feColorMatrix type="matrix" values="0 0 0 0 1 0 0 0 0 1 0 0 0 0 1 0 0 0 0.15 0"/>
<feBlend mode="normal" in2="BackgroundImageFix" result="effect1_dropShadow_2859_66955"/>
<feBlend mode="normal" in="SourceGraphic" in2="effect1_dropShadow_2859_66955" result="shape"/>
</filter>
<filter id="filter1_d_2859_66955" x="61.1406" y="61.1416" width="31.7188" height="31.7168" filterUnits="userSpaceOnUse" color-interpolation-filters="sRGB">
<feFlood flood-opacity="0" result="BackgroundImageFix"/>
<feColorMatrix in="SourceAlpha" type="matrix" values="0 0 0 0 0 0 0 0 0 0 0 0 0 0 0 0 0 0 127 0" result="hardAlpha"/>
<feOffset/>
<feGaussianBlur stdDeviation="1"/>
<feComposite in2="hardAlpha" operator="out"/>
<feColorMatrix type="matrix" values="0 0 0 0 1 0 0 0 0 0.980377 0 0 0 0 0.956848 0 0 0 1 0"/>
<feBlend mode="normal" in2="BackgroundImageFix" result="effect1_dropShadow_2859_66955"/>
<feBlend mode="normal" in="SourceGraphic" in2="effect1_dropShadow_2859_66955" result="shape"/>
</filter>
<linearGradient id="paint0_linear_2859_66955" x1="0" y1="77" x2="154" y2="77" gradientUnits="userSpaceOnUse">
<stop stop-color="#DADADA"/>
<stop offset="0.5" stop-color="#B4B4B4"/>
<stop offset="1" stop-color="#DADADA"/>
</linearGradient>
<linearGradient id="paint1_linear_2859_66955" x1="9" y1="77" x2="145" y2="77" gradientUnits="userSpaceOnUse">
<stop stop-color="#DADADA"/>
<stop offset="0.5" stop-color="#B4B4B4"/>
<stop offset="1" stop-color="#DADADA"/>
</linearGradient>
<linearGradient id="paint2_linear_2859_66955" x1="18" y1="77" x2="136" y2="77" gradientUnits="userSpaceOnUse">
<stop stop-color="#DADADA"/>
<stop offset="0.5" stop-color="#B4B4B4"/>
<stop offset="1" stop-color="#DADADA"/>
</linearGradient>
<linearGradient id="paint3_linear_2859_66955" x1="27" y1="77" x2="127" y2="77" gradientUnits="userSpaceOnUse">
<stop stop-color="#DADADA"/>
<stop offset="0.5" stop-color="#B4B4B4"/>
<stop offset="1" stop-color="#DADADA"/>
</linearGradient>
<linearGradient id="paint4_linear_2859_66955" x1="77" y1="52" x2="77" y2="102" gradientUnits="userSpaceOnUse">
<stop stop-color="#947863"/>
<stop offset="0.5" stop-color="#E9DDD4"/>
<stop offset="1" stop-color="#947863"/>
</linearGradient>
<linearGradient id="paint5_linear_2859_66955" x1="77" y1="63.5" x2="77" y2="90.5" gradientUnits="userSpaceOnUse">
<stop stop-color="#947863"/>
<stop offset="0.5" stop-color="#E9DDD4"/>
<stop offset="1" stop-color="#947863"/>
</linearGradient>
</defs>
</svg>
