<svg width="154" height="154" viewBox="0 0 154 154" fill="none" xmlns="http://www.w3.org/2000/svg">
<path d="M77 0C119.526 0 154 34.4741 154 77C154 119.526 119.526 154 77 154C34.4741 154 0 119.526 0 77C0 34.4741 34.4741 0 77 0ZM77 149.973C117.302 149.973 149.973 117.302 149.973 77C149.973 36.6982 117.302 4.0271 77 4.0271C36.6982 4.0271 4.0271 36.6982 4.0271 77C4.0271 117.302 36.6982 149.973 77 149.973Z" fill="url(#paint0_linear_2859_66953)"/>
<g filter="url(#filter0_g_2859_66953)">
<path d="M127 76.999C127 104.613 104.614 126.999 77 126.999C49.3858 126.999 27 104.613 27 76.999C27 49.3848 49.3858 26.999 77 26.999C104.614 26.999 127 49.3848 127 76.999ZM31.005 76.999C31.005 102.401 51.5977 122.994 77 122.994C102.402 122.994 122.995 102.401 122.995 76.999C122.995 51.5967 102.402 31.004 77 31.004C51.5977 31.004 31.005 51.5967 31.005 76.999Z" fill="url(#paint1_linear_2859_66953)" fill-opacity="0.2"/>
</g>
<g filter="url(#filter1_d_2859_66953)">
<path d="M117 77C117 99.0914 99.0914 117 77 117C54.9086 117 37 99.0914 37 77C37 54.9086 54.9086 37 77 37C99.0914 37 117 54.9086 117 77Z" fill="white"/>
</g>
<path d="M77 9C114.555 9 145 39.4446 145 77C145 114.555 114.555 145 77 145C39.4446 145 9 114.555 9 77C9 39.4446 39.4446 9 77 9ZM77 141.002C112.347 141.002 141.002 112.347 141.002 77C141.002 41.6529 112.347 12.9984 77 12.9984C41.6529 12.9984 12.9984 41.6529 12.9984 77C12.9984 112.347 41.6529 141.002 77 141.002Z" fill="url(#paint2_linear_2859_66953)"/>
<path d="M75.8114 9.01069C113.361 8.35526 144.332 38.2639 144.988 75.8136C145.643 113.363 115.735 144.335 78.185 144.99C40.6353 145.645 9.66398 115.737 9.00855 78.1871C8.35312 40.6375 38.2618 9.66612 75.8114 9.01069ZM78.1152 140.992C113.457 140.375 141.607 111.225 140.99 75.8834C140.373 40.5416 111.223 12.3916 75.8812 13.0085C40.5395 13.6254 12.3894 42.7756 13.0063 78.1173C13.6232 113.459 42.7735 141.609 78.1152 140.992Z" fill="url(#paint3_linear_2859_66953)"/>
<g filter="url(#filter2_d_2859_66953)">
<path d="M77 53.903C77 66.6591 87.3409 77 100.097 77C87.3409 77 77 87.3409 77 100.097C77 87.3409 66.6591 77 53.903 77C66.6591 77 77 66.6591 77 53.903Z" fill="url(#paint4_linear_2859_66953)"/>
<path d="M77 58.752C78.9093 67.8926 86.1065 75.0904 95.2471 77C86.1068 78.9096 78.9096 86.1068 77 95.2471C75.0904 86.1065 67.8926 78.9093 58.752 77C67.893 75.0907 75.0907 67.893 77 58.752Z" stroke="url(#paint5_linear_2859_66953)"/>
</g>
<path d="M77 67.7612C77 72.8637 81.1364 77 86.2388 77C81.1364 77 77 81.1364 77 86.2388C77 81.1364 72.8637 77 67.7612 77C72.8637 77 77 72.8637 77 67.7612Z" fill="white"/>
<g opacity="0.25" filter="url(#filter3_g_2859_66953)">
<path d="M78.0449 136.011C45.4651 136.579 18.5929 110.629 18.0242 78.0494C17.4555 45.4696 43.4057 18.5974 75.9855 18.0287C108.565 17.46 135.438 43.4102 136.006 75.99C136.575 108.57 110.625 135.442 78.0449 136.011ZM76.0555 22.0342C45.6878 22.5643 21.4996 47.6118 22.0297 77.9795C22.5598 108.347 47.6073 132.535 77.975 132.005C108.343 131.475 132.531 106.428 132.001 76.06C131.471 45.6923 106.423 21.5041 76.0555 22.0342Z" fill="url(#paint6_linear_2859_66953)"/>
</g>
<defs>
<filter id="filter0_g_2859_66953" x="23" y="22.999" width="108" height="108" filterUnits="userSpaceOnUse" color-interpolation-filters="sRGB">
<feFlood flood-opacity="0" result="BackgroundImageFix"/>
<feBlend mode="normal" in="SourceGraphic" in2="BackgroundImageFix" result="shape"/>
<feTurbulence type="fractalNoise" baseFrequency="0.125 0.125" numOctaves="3" seed="4061" />
<feDisplacementMap in="shape" scale="8" xChannelSelector="R" yChannelSelector="G" result="displacedImage" width="100%" height="100%" />
<feMerge result="effect1_texture_2859_66953">
<feMergeNode in="displacedImage"/>
</feMerge>
</filter>
<filter id="filter1_d_2859_66953" x="27" y="27" width="100" height="100" filterUnits="userSpaceOnUse" color-interpolation-filters="sRGB">
<feFlood flood-opacity="0" result="BackgroundImageFix"/>
<feColorMatrix in="SourceAlpha" type="matrix" values="0 0 0 0 0 0 0 0 0 0 0 0 0 0 0 0 0 0 127 0" result="hardAlpha"/>
<feOffset/>
<feGaussianBlur stdDeviation="5"/>
<feComposite in2="hardAlpha" operator="out"/>
<feColorMatrix type="matrix" values="0 0 0 0 0.639216 0 0 0 0 0.54902 0 0 0 0 0.482353 0 0 0 0.25 0"/>
<feBlend mode="normal" in2="BackgroundImageFix" result="effect1_dropShadow_2859_66953"/>
<feBlend mode="normal" in="SourceGraphic" in2="effect1_dropShadow_2859_66953" result="shape"/>
</filter>
<filter id="filter2_d_2859_66953" x="43.9062" y="43.9033" width="66.1875" height="66.1934" filterUnits="userSpaceOnUse" color-interpolation-filters="sRGB">
<feFlood flood-opacity="0" result="BackgroundImageFix"/>
<feColorMatrix in="SourceAlpha" type="matrix" values="0 0 0 0 0 0 0 0 0 0 0 0 0 0 0 0 0 0 127 0" result="hardAlpha"/>
<feOffset/>
<feGaussianBlur stdDeviation="5"/>
<feComposite in2="hardAlpha" operator="out"/>
<feColorMatrix type="matrix" values="0 0 0 0 0.639216 0 0 0 0 0.54902 0 0 0 0 0.482353 0 0 0 0.25 0"/>
<feBlend mode="normal" in2="BackgroundImageFix" result="effect1_dropShadow_2859_66953"/>
<feBlend mode="normal" in="SourceGraphic" in2="effect1_dropShadow_2859_66953" result="shape"/>
</filter>
<filter id="filter3_g_2859_66953" x="14.0156" y="14.0195" width="126" height="126" filterUnits="userSpaceOnUse" color-interpolation-filters="sRGB">
<feFlood flood-opacity="0" result="BackgroundImageFix"/>
<feBlend mode="normal" in="SourceGraphic" in2="BackgroundImageFix" result="shape"/>
<feTurbulence type="fractalNoise" baseFrequency="0.10526315867900848 0.10526315867900848" numOctaves="3" seed="7533" />
<feDisplacementMap in="shape" scale="8" xChannelSelector="R" yChannelSelector="G" result="displacedImage" width="100%" height="100%" />
<feMerge result="effect1_texture_2859_66953">
<feMergeNode in="displacedImage"/>
</feMerge>
</filter>
<linearGradient id="paint0_linear_2859_66953" x1="0" y1="77" x2="154" y2="77" gradientUnits="userSpaceOnUse">
<stop stop-color="#DADADA"/>
<stop offset="0.5" stop-color="#B4B4B4"/>
<stop offset="1" stop-color="#DADADA"/>
</linearGradient>
<linearGradient id="paint1_linear_2859_66953" x1="27" y1="76.999" x2="127" y2="76.999" gradientUnits="userSpaceOnUse">
<stop stop-color="#947863"/>
<stop offset="0.504808" stop-color="#E9DDD4"/>
<stop offset="1" stop-color="#947863"/>
</linearGradient>
<linearGradient id="paint2_linear_2859_66953" x1="9" y1="77" x2="145" y2="77" gradientUnits="userSpaceOnUse">
<stop stop-color="#DADADA"/>
<stop offset="0.5" stop-color="#B4B4B4"/>
<stop offset="1" stop-color="#DADADA"/>
</linearGradient>
<linearGradient id="paint3_linear_2859_66953" x1="78.185" y1="144.99" x2="75.8114" y2="9.01068" gradientUnits="userSpaceOnUse">
<stop stop-color="#7C5E4F"/>
<stop offset="0.5" stop-color="#E2D3CA"/>
<stop offset="1" stop-color="#7C5E4F"/>
</linearGradient>
<linearGradient id="paint4_linear_2859_66953" x1="99.6494" y1="77" x2="54.6494" y2="77" gradientUnits="userSpaceOnUse">
<stop stop-color="#7C5E4F"/>
<stop offset="0.5" stop-color="#E2D3CA"/>
<stop offset="1" stop-color="#7C5E4F"/>
</linearGradient>
<linearGradient id="paint5_linear_2859_66953" x1="77" y1="52" x2="77" y2="102" gradientUnits="userSpaceOnUse">
<stop stop-color="#7C5E4F"/>
<stop offset="0.5" stop-color="#E2D3CA"/>
<stop offset="1" stop-color="#7C5E4F"/>
</linearGradient>
<linearGradient id="paint6_linear_2859_66953" x1="75.9855" y1="18.0287" x2="78.0449" y2="136.011" gradientUnits="userSpaceOnUse">
<stop stop-color="#8D6C5C"/>
<stop offset="0.5" stop-color="#D6C2B3"/>
<stop offset="1" stop-color="#8D6C5C"/>
</linearGradient>
</defs>
</svg>
