<svg width="28" height="24" viewBox="0 0 28 24" fill="none" xmlns="http://www.w3.org/2000/svg">
<path d="M19.2388 10C14.1363 10 10 14.1364 10 19.2388C10 14.1364 5.86365 10 0.761204 10C5.86365 10 10 5.86365 10 0.761204C10 5.86365 14.1363 10 19.2388 10Z" fill="#2C2C2C"/>
<path d="M25.5433 17.9883C22.4818 17.9883 20 20.4701 20 23.5316C20 20.4701 17.5182 17.9883 14.4567 17.9883C17.5182 17.9883 20 15.5065 20 12.445C20 15.5065 22.4818 17.9883 25.5433 17.9883Z" fill="#2C2C2C"/>
<g filter="url(#filter0_d_2930_72426)">
<path d="M25.8478 7.99707C24.8273 7.99707 24 8.82434 24 9.84483C24 8.82434 23.1727 7.99707 22.1522 7.99707C23.1727 7.99707 24 7.1698 24 6.14931C24 7.1698 24.8273 7.99707 25.8478 7.99707Z" fill="url(#paint0_linear_2930_72426)"/>
</g>
<defs>
<filter id="filter0_d_2930_72426" x="20.1484" y="4.14941" width="7.70312" height="7.69531" filterUnits="userSpaceOnUse" color-interpolation-filters="sRGB">
<feFlood flood-opacity="0" result="BackgroundImageFix"/>
<feColorMatrix in="SourceAlpha" type="matrix" values="0 0 0 0 0 0 0 0 0 0 0 0 0 0 0 0 0 0 127 0" result="hardAlpha"/>
<feOffset/>
<feGaussianBlur stdDeviation="1"/>
<feComposite in2="hardAlpha" operator="out"/>
<feColorMatrix type="matrix" values="0 0 0 0 0.913725 0 0 0 0 0.866667 0 0 0 0 0.831373 0 0 0 0.6 0"/>
<feBlend mode="normal" in2="BackgroundImageFix" result="effect1_dropShadow_2930_72426"/>
<feBlend mode="normal" in="SourceGraphic" in2="effect1_dropShadow_2930_72426" result="shape"/>
</filter>
<linearGradient id="paint0_linear_2930_72426" x1="26" y1="6.01172" x2="22" y2="10.0117" gradientUnits="userSpaceOnUse">
<stop stop-color="#7C5E4F"/>
<stop offset="0.495192" stop-color="#E2D3CA"/>
<stop offset="1" stop-color="#7C5E4F"/>
</linearGradient>
</defs>
</svg>
