<svg width="70" height="54" viewBox="0 0 70 54" fill="none" xmlns="http://www.w3.org/2000/svg">
<path d="M44.4189 17L35 28.1758L25.5811 17H44.4189Z" fill="#2C2C2C" stroke="white" stroke-width="34"/>
<path d="M24.2294 24V22.4773L28.2692 18.517C28.6555 18.1269 28.9775 17.7803 29.2351 17.4773C29.4927 17.1742 29.6858 16.8807 29.8146 16.5966C29.9434 16.3125 30.0078 16.0095 30.0078 15.6875C30.0078 15.3201 29.9245 15.0057 29.7578 14.7443C29.5911 14.4792 29.362 14.2746 29.0703 14.1307C28.7786 13.9867 28.4472 13.9148 28.076 13.9148C27.6934 13.9148 27.3582 13.9943 27.0703 14.1534C26.7824 14.3087 26.5589 14.5303 26.3999 14.8182C26.2446 15.1061 26.1669 15.4489 26.1669 15.8466H24.1612C24.1612 15.108 24.3298 14.4659 24.6669 13.9205C25.004 13.375 25.468 12.9527 26.0589 12.6534C26.6536 12.3542 27.3355 12.2045 28.1044 12.2045C28.8847 12.2045 29.5703 12.3504 30.1612 12.642C30.7521 12.9337 31.2105 13.3333 31.5362 13.8409C31.8658 14.3485 32.0305 14.928 32.0305 15.5795C32.0305 16.0152 31.9472 16.4432 31.7805 16.8636C31.6139 17.2841 31.3203 17.75 30.8999 18.2614C30.4832 18.7727 29.898 19.392 29.1442 20.1193L27.1385 22.1591V22.2386H32.2067V24H24.2294ZM38.468 24.2216C37.5324 24.2216 36.7294 23.9848 36.0589 23.5114C35.3923 23.0341 34.879 22.3466 34.5192 21.4489C34.1631 20.5473 33.9851 19.4621 33.9851 18.1932C33.9889 16.9242 34.1688 15.8447 34.5249 14.9545C34.8847 14.0606 35.398 13.3788 36.0646 12.9091C36.7351 12.4394 37.5362 12.2045 38.468 12.2045C39.3999 12.2045 40.201 12.4394 40.8714 12.9091C41.5419 13.3788 42.0552 14.0606 42.4112 14.9545C42.7711 15.8485 42.951 16.928 42.951 18.1932C42.951 19.4659 42.7711 20.553 42.4112 21.4545C42.0552 22.3523 41.5419 23.0379 40.8714 23.5114C40.2048 23.9848 39.4036 24.2216 38.468 24.2216ZM38.468 22.4432C39.1953 22.4432 39.7692 22.0852 40.1896 21.3693C40.6139 20.6496 40.826 19.5909 40.826 18.1932C40.826 17.2689 40.7294 16.4924 40.5362 15.8636C40.343 15.2348 40.0703 14.7614 39.718 14.4432C39.3658 14.1212 38.9491 13.9602 38.468 13.9602C37.7446 13.9602 37.1726 14.3201 36.7521 15.0398C36.3317 15.7557 36.1196 16.8068 36.1158 18.1932C36.112 19.1212 36.2048 19.9015 36.3942 20.5341C36.5874 21.1667 36.8601 21.6439 37.2124 21.9659C37.5646 22.2841 37.9832 22.4432 38.468 22.4432Z" fill="#2C2C2C"/>
<path d="M47.2212 23.0455V22.777C47.2212 22.5798 47.2627 22.3983 47.3455 22.2326C47.43 22.0669 47.5527 21.9335 47.7134 21.8324C47.8742 21.7313 48.0689 21.6808 48.2976 21.6808C48.5329 21.6808 48.7301 21.7313 48.8892 21.8324C49.0483 21.9318 49.1684 22.0644 49.2496 22.2301C49.3325 22.3958 49.3739 22.5781 49.3739 22.777V23.0455C49.3739 23.2427 49.3325 23.4241 49.2496 23.5898C49.1668 23.7556 49.045 23.889 48.8842 23.9901C48.7251 24.0911 48.5296 24.1417 48.2976 24.1417C48.0656 24.1417 47.8692 24.0911 47.7085 23.9901C47.5477 23.889 47.4259 23.7556 47.343 23.5898C47.2618 23.4241 47.2212 23.2427 47.2212 23.0455ZM47.87 22.777V23.0455C47.87 23.1764 47.9015 23.2965 47.9645 23.4059C48.0275 23.5153 48.1385 23.57 48.2976 23.57C48.4583 23.57 48.5685 23.5161 48.6282 23.4084C48.6895 23.299 48.7202 23.178 48.7202 23.0455V22.777C48.7202 22.6444 48.6912 22.5234 48.6332 22.4141C48.5752 22.303 48.4633 22.2475 48.2976 22.2475C48.1418 22.2475 48.0316 22.303 47.967 22.4141C47.9023 22.5234 47.87 22.6444 47.87 22.777ZM44.6335 20.1321V19.8636C44.6335 19.6648 44.6758 19.4825 44.7603 19.3168C44.8448 19.151 44.9674 19.0185 45.1282 18.919C45.2889 18.8179 45.4837 18.7674 45.7124 18.7674C45.946 18.7674 46.1424 18.8179 46.3015 18.919C46.4622 19.0185 46.5832 19.151 46.6644 19.3168C46.7456 19.4825 46.7862 19.6648 46.7862 19.8636V20.1321C46.7862 20.331 46.7448 20.5133 46.6619 20.679C46.5807 20.843 46.4598 20.9748 46.299 21.0742C46.1383 21.1737 45.9427 21.2234 45.7124 21.2234C45.4787 21.2234 45.2815 21.1737 45.1207 21.0742C44.9616 20.9748 44.8407 20.8422 44.7578 20.6765C44.675 20.5108 44.6335 20.3293 44.6335 20.1321ZM45.2873 19.8636V20.1321C45.2873 20.2647 45.3179 20.3857 45.3793 20.495C45.4422 20.6027 45.5533 20.6566 45.7124 20.6566C45.8714 20.6566 45.9808 20.6027 46.0405 20.495C46.1018 20.3857 46.1325 20.2647 46.1325 20.1321V19.8636C46.1325 19.7311 46.1035 19.6101 46.0455 19.5007C45.9875 19.3897 45.8764 19.3342 45.7124 19.3342C45.5549 19.3342 45.4447 19.3897 45.3817 19.5007C45.3188 19.6117 45.2873 19.7327 45.2873 19.8636ZM44.9169 24L48.4169 18.9091H49.0384L45.5384 24H44.9169Z" fill="#2C2C2C"/>
</svg>
