<svg width="70" height="54" viewBox="0 0 70 54" fill="none" xmlns="http://www.w3.org/2000/svg">
<path d="M44.4189 17L35 28.1758L25.5811 17H44.4189Z" fill="white" stroke="url(#paint0_linear_3015_75119)" stroke-width="34"/>
<path d="M24.549 24V22.7273L28.4865 18.6477C28.907 18.2045 29.2536 17.8163 29.5263 17.483C29.8028 17.1458 30.0092 16.8258 30.1456 16.5227C30.282 16.2197 30.3501 15.8977 30.3501 15.5568C30.3501 15.1705 30.2592 14.8371 30.0774 14.5568C29.8956 14.2727 29.6475 14.0549 29.3331 13.9034C29.0187 13.7481 28.6645 13.6705 28.2706 13.6705C27.8539 13.6705 27.4903 13.7557 27.1797 13.9261C26.8691 14.0966 26.6304 14.3371 26.4638 14.6477C26.2971 14.9583 26.2138 15.322 26.2138 15.7386H24.5376C24.5376 15.0303 24.7005 14.411 25.0263 13.8807C25.352 13.3504 25.799 12.9394 26.3672 12.6477C26.9354 12.3523 27.5812 12.2045 28.3047 12.2045C29.0357 12.2045 29.6797 12.3504 30.2365 12.642C30.7971 12.9299 31.2346 13.3239 31.549 13.8239C31.8634 14.3201 32.0206 14.8807 32.0206 15.5057C32.0206 15.9375 31.9392 16.3598 31.7763 16.7727C31.6172 17.1856 31.3388 17.6458 30.9411 18.1534C30.5433 18.6572 29.9903 19.2689 29.282 19.9886L26.9695 22.4091V22.4943H32.2081V24H24.549ZM38.4126 24.1932C37.5149 24.1894 36.7479 23.9527 36.1115 23.483C35.4751 23.0133 34.9884 22.3295 34.6513 21.4318C34.3142 20.5341 34.1456 19.4527 34.1456 18.1875C34.1456 16.9261 34.3142 15.8485 34.6513 14.9545C34.9922 14.0606 35.4808 13.3788 36.1172 12.9091C36.7573 12.4394 37.5225 12.2045 38.4126 12.2045C39.3028 12.2045 40.0661 12.4413 40.7024 12.9148C41.3388 13.3845 41.8255 14.0663 42.1626 14.9602C42.5036 15.8504 42.674 16.9261 42.674 18.1875C42.674 19.4564 42.5054 20.5398 42.1683 21.4375C41.8312 22.3314 41.3445 23.0152 40.7081 23.4886C40.0717 23.9583 39.3066 24.1932 38.4126 24.1932ZM38.4126 22.6761C39.2005 22.6761 39.8161 22.2917 40.2592 21.5227C40.7062 20.7538 40.9297 19.642 40.9297 18.1875C40.9297 17.2216 40.8274 16.4053 40.6229 15.7386C40.4221 15.0682 40.1323 14.5606 39.7536 14.2159C39.3786 13.8674 38.9316 13.6932 38.4126 13.6932C37.6286 13.6932 37.013 14.0795 36.5661 14.8523C36.1191 15.625 35.8937 16.7367 35.8899 18.1875C35.8899 19.1572 35.9903 19.9773 36.1911 20.6477C36.3956 21.3144 36.6854 21.8201 37.0604 22.1648C37.4354 22.5057 37.8861 22.6761 38.4126 22.6761Z" fill="white"/>
<path d="M47.2212 23.0455V22.777C47.2212 22.5798 47.2627 22.3983 47.3455 22.2326C47.43 22.0669 47.5527 21.9335 47.7134 21.8324C47.8742 21.7313 48.0689 21.6808 48.2976 21.6808C48.5329 21.6808 48.7301 21.7313 48.8892 21.8324C49.0483 21.9318 49.1684 22.0644 49.2496 22.2301C49.3325 22.3958 49.3739 22.5781 49.3739 22.777V23.0455C49.3739 23.2427 49.3325 23.4241 49.2496 23.5898C49.1668 23.7556 49.045 23.889 48.8842 23.9901C48.7251 24.0911 48.5296 24.1417 48.2976 24.1417C48.0656 24.1417 47.8692 24.0911 47.7085 23.9901C47.5477 23.889 47.4259 23.7556 47.343 23.5898C47.2618 23.4241 47.2212 23.2427 47.2212 23.0455ZM47.87 22.777V23.0455C47.87 23.1764 47.9015 23.2965 47.9645 23.4059C48.0275 23.5153 48.1385 23.57 48.2976 23.57C48.4583 23.57 48.5685 23.5161 48.6282 23.4084C48.6895 23.299 48.7202 23.178 48.7202 23.0455V22.777C48.7202 22.6444 48.6912 22.5234 48.6332 22.4141C48.5752 22.303 48.4633 22.2475 48.2976 22.2475C48.1418 22.2475 48.0316 22.303 47.967 22.4141C47.9023 22.5234 47.87 22.6444 47.87 22.777ZM44.6335 20.1321V19.8636C44.6335 19.6648 44.6758 19.4825 44.7603 19.3168C44.8448 19.151 44.9674 19.0185 45.1282 18.919C45.2889 18.8179 45.4837 18.7674 45.7124 18.7674C45.946 18.7674 46.1424 18.8179 46.3015 18.919C46.4622 19.0185 46.5832 19.151 46.6644 19.3168C46.7456 19.4825 46.7862 19.6648 46.7862 19.8636V20.1321C46.7862 20.331 46.7448 20.5133 46.6619 20.679C46.5807 20.843 46.4598 20.9748 46.299 21.0742C46.1383 21.1737 45.9427 21.2234 45.7124 21.2234C45.4787 21.2234 45.2815 21.1737 45.1207 21.0742C44.9616 20.9748 44.8407 20.8422 44.7578 20.6765C44.675 20.5108 44.6335 20.3293 44.6335 20.1321ZM45.2873 19.8636V20.1321C45.2873 20.2647 45.3179 20.3857 45.3793 20.495C45.4422 20.6027 45.5533 20.6566 45.7124 20.6566C45.8714 20.6566 45.9808 20.6027 46.0405 20.495C46.1018 20.3857 46.1325 20.2647 46.1325 20.1321V19.8636C46.1325 19.7311 46.1035 19.6101 46.0455 19.5007C45.9875 19.3897 45.8764 19.3342 45.7124 19.3342C45.5549 19.3342 45.4447 19.3897 45.3817 19.5007C45.3188 19.6117 45.2873 19.7327 45.2873 19.8636ZM44.9169 24L48.4169 18.9091H49.0384L45.5384 24H44.9169Z" fill="white"/>
<defs>
<linearGradient id="paint0_linear_3015_75119" x1="63.9776" y1="6" x2="31.4708" y2="49.9778" gradientUnits="userSpaceOnUse">
<stop stop-color="#7C5E4F"/>
<stop offset="0.5" stop-color="#E2D3CA"/>
<stop offset="1" stop-color="#7C5E4F"/>
</linearGradient>
</defs>
</svg>
