<svg width="70" height="54" viewBox="0 0 70 54" fill="none" xmlns="http://www.w3.org/2000/svg">
<path d="M44.4189 17L35 28.1758L25.5811 17H44.4189Z" fill="white" stroke="url(#paint0_linear_3015_75098)" stroke-width="34"/>
<path d="M28.4368 24.1591C27.6186 24.1591 26.8913 24.0189 26.255 23.7386C25.6224 23.4583 25.1224 23.0682 24.755 22.5682C24.3875 22.0682 24.1925 21.4905 24.1697 20.8352H26.3061C26.325 21.1496 26.4292 21.4242 26.6186 21.6591C26.808 21.8902 27.0599 22.0701 27.3743 22.1989C27.6887 22.3277 28.041 22.392 28.4311 22.392C28.8478 22.392 29.2171 22.3201 29.5391 22.1761C29.861 22.0284 30.1129 21.8239 30.2947 21.5625C30.4766 21.3011 30.5656 21 30.5618 20.6591C30.5656 20.3068 30.4747 19.9962 30.2891 19.7273C30.1035 19.4583 29.8345 19.2481 29.4822 19.0966C29.1338 18.9451 28.7133 18.8693 28.2209 18.8693H27.1925V17.2443H28.2209C28.6262 17.2443 28.9804 17.1742 29.2834 17.0341C29.5902 16.8939 29.8307 16.697 30.005 16.4432C30.1792 16.1856 30.2644 15.8883 30.2607 15.5511C30.2644 15.2216 30.1906 14.9356 30.0391 14.6932C29.8913 14.447 29.6811 14.2557 29.4084 14.1193C29.1394 13.983 28.8232 13.9148 28.4595 13.9148C28.1035 13.9148 27.7739 13.9792 27.4709 14.108C27.1679 14.2367 26.9235 14.4205 26.7379 14.6591C26.5523 14.8939 26.4538 15.1742 26.4425 15.5H24.4141C24.4292 14.8485 24.6167 14.2765 24.9766 13.7841C25.3402 13.2879 25.825 12.9015 26.4311 12.625C27.0372 12.3447 27.7171 12.2045 28.4709 12.2045C29.2474 12.2045 29.9216 12.3504 30.4936 12.642C31.0694 12.9299 31.5144 13.3182 31.8288 13.8068C32.1432 14.2955 32.3004 14.8352 32.3004 15.4261C32.3042 16.0814 32.111 16.6307 31.7209 17.0739C31.3345 17.517 30.8269 17.8068 30.1982 17.9432V18.0341C31.0163 18.1477 31.6432 18.4508 32.0788 18.9432C32.5182 19.4318 32.736 20.0398 32.7322 20.767C32.7322 21.4186 32.5466 22.0019 32.1754 22.517C31.808 23.0284 31.3004 23.4299 30.6527 23.7216C30.0088 24.0133 29.2701 24.1591 28.4368 24.1591ZM38.728 24.1591C37.9704 24.1591 37.2924 24.017 36.6939 23.733C36.0954 23.4451 35.62 23.0511 35.2678 22.5511C34.9193 22.0511 34.7337 21.4792 34.7109 20.8352H36.7564C36.7943 21.3125 37.0007 21.7027 37.3757 22.0057C37.7507 22.3049 38.2015 22.4545 38.728 22.4545C39.1409 22.4545 39.5083 22.3598 39.8303 22.1705C40.1522 21.9811 40.406 21.7178 40.5916 21.3807C40.7772 21.0436 40.8681 20.6591 40.8643 20.2273C40.8681 19.7879 40.7753 19.3977 40.5859 19.0568C40.3965 18.7159 40.1371 18.4489 39.8075 18.2557C39.478 18.0587 39.0992 17.9602 38.6712 17.9602C38.3227 17.9564 37.9799 18.0208 37.6428 18.1534C37.3056 18.286 37.0386 18.4602 36.8416 18.6761L34.9382 18.3636L35.5462 12.3636H42.2962V14.125H37.2905L36.9553 17.2102H37.0234C37.2393 16.9564 37.5443 16.7462 37.9382 16.5795C38.3321 16.4091 38.764 16.3239 39.2337 16.3239C39.9382 16.3239 40.567 16.4905 41.12 16.8239C41.6731 17.1534 42.1087 17.608 42.4268 18.1875C42.745 18.767 42.9041 19.4299 42.9041 20.1761C42.9041 20.9451 42.7261 21.6307 42.37 22.233C42.0178 22.8314 41.5272 23.303 40.8984 23.6477C40.2734 23.9886 39.55 24.1591 38.728 24.1591Z" fill="white"/>
<path d="M47.2212 23.0455V22.777C47.2212 22.5798 47.2627 22.3983 47.3455 22.2326C47.43 22.0669 47.5527 21.9335 47.7134 21.8324C47.8742 21.7313 48.0689 21.6808 48.2976 21.6808C48.5329 21.6808 48.7301 21.7313 48.8892 21.8324C49.0483 21.9318 49.1684 22.0644 49.2496 22.2301C49.3325 22.3958 49.3739 22.5781 49.3739 22.777V23.0455C49.3739 23.2427 49.3325 23.4241 49.2496 23.5898C49.1668 23.7556 49.045 23.889 48.8842 23.9901C48.7251 24.0911 48.5296 24.1417 48.2976 24.1417C48.0656 24.1417 47.8692 24.0911 47.7085 23.9901C47.5477 23.889 47.4259 23.7556 47.343 23.5898C47.2618 23.4241 47.2212 23.2427 47.2212 23.0455ZM47.87 22.777V23.0455C47.87 23.1764 47.9015 23.2965 47.9645 23.4059C48.0275 23.5153 48.1385 23.57 48.2976 23.57C48.4583 23.57 48.5685 23.5161 48.6282 23.4084C48.6895 23.299 48.7202 23.178 48.7202 23.0455V22.777C48.7202 22.6444 48.6912 22.5234 48.6332 22.4141C48.5752 22.303 48.4633 22.2475 48.2976 22.2475C48.1418 22.2475 48.0316 22.303 47.967 22.4141C47.9023 22.5234 47.87 22.6444 47.87 22.777ZM44.6335 20.1321V19.8636C44.6335 19.6648 44.6758 19.4825 44.7603 19.3168C44.8448 19.151 44.9674 19.0185 45.1282 18.919C45.2889 18.8179 45.4837 18.7674 45.7124 18.7674C45.946 18.7674 46.1424 18.8179 46.3015 18.919C46.4622 19.0185 46.5832 19.151 46.6644 19.3168C46.7456 19.4825 46.7862 19.6648 46.7862 19.8636V20.1321C46.7862 20.331 46.7448 20.5133 46.6619 20.679C46.5807 20.843 46.4598 20.9748 46.299 21.0742C46.1383 21.1737 45.9427 21.2234 45.7124 21.2234C45.4787 21.2234 45.2815 21.1737 45.1207 21.0742C44.9616 20.9748 44.8407 20.8422 44.7578 20.6765C44.675 20.5108 44.6335 20.3293 44.6335 20.1321ZM45.2873 19.8636V20.1321C45.2873 20.2647 45.3179 20.3857 45.3793 20.495C45.4422 20.6027 45.5533 20.6566 45.7124 20.6566C45.8714 20.6566 45.9808 20.6027 46.0405 20.495C46.1018 20.3857 46.1325 20.2647 46.1325 20.1321V19.8636C46.1325 19.7311 46.1035 19.6101 46.0455 19.5007C45.9875 19.3897 45.8764 19.3342 45.7124 19.3342C45.5549 19.3342 45.4447 19.3897 45.3817 19.5007C45.3188 19.6117 45.2873 19.7327 45.2873 19.8636ZM44.9169 24L48.4169 18.9091H49.0384L45.5384 24H44.9169Z" fill="white"/>
<defs>
<linearGradient id="paint0_linear_3015_75098" x1="63.9776" y1="6" x2="31.4708" y2="49.9778" gradientUnits="userSpaceOnUse">
<stop stop-color="#2E253A"/>
<stop offset="0.5" stop-color="#68526E"/>
<stop offset="1" stop-color="#2E253A"/>
</linearGradient>
</defs>
</svg>
