<svg width="70" height="54" viewBox="0 0 70 54" fill="none" xmlns="http://www.w3.org/2000/svg">
<path d="M44.4189 17L35 28.1758L25.5811 17H44.4189Z" fill="white" stroke="url(#paint0_linear_3015_75105)" stroke-width="34"/>
<path d="M24.1797 21.7273V20.3068L29.2081 12.3636H30.3274V14.4545H29.6172L26.0206 20.1477V20.2386H32.9126V21.7273H24.1797ZM29.6967 24V21.2955L29.7081 20.6477V12.3636H31.3729V24H29.6967ZM38.7337 24.1591C38.0215 24.1591 37.3814 24.0227 36.8132 23.75C36.2488 23.4735 35.7981 23.0947 35.4609 22.6136C35.1238 22.1326 34.9439 21.5833 34.9212 20.9659H36.6257C36.6674 21.4659 36.889 21.8769 37.2905 22.1989C37.692 22.5208 38.1731 22.6818 38.7337 22.6818C39.1806 22.6818 39.5765 22.5795 39.9212 22.375C40.2696 22.1667 40.5424 21.8807 40.7393 21.517C40.9401 21.1534 41.0405 20.7386 41.0405 20.2727C41.0405 19.7992 40.9382 19.3769 40.7337 19.0057C40.5291 18.6345 40.2469 18.3428 39.8871 18.1307C39.531 17.9186 39.1219 17.8106 38.6598 17.8068C38.3075 17.8068 37.9534 17.8674 37.5973 17.9886C37.2412 18.1098 36.9534 18.2689 36.7337 18.4659L35.1257 18.2273L35.7791 12.3636H42.1768V13.8693H37.2393L36.87 17.125H36.9382C37.1655 16.9053 37.4666 16.7216 37.8416 16.5739C38.2204 16.4261 38.6257 16.3523 39.0575 16.3523C39.7659 16.3523 40.3965 16.5208 40.9496 16.858C41.5064 17.1951 41.9439 17.6553 42.2621 18.2386C42.584 18.8182 42.7431 19.4848 42.7393 20.2386C42.7431 20.9924 42.5727 21.6648 42.228 22.2557C41.8871 22.8466 41.4136 23.3125 40.8075 23.6534C40.2053 23.9905 39.514 24.1591 38.7337 24.1591Z" fill="white"/>
<path d="M47.2212 23.0455V22.777C47.2212 22.5798 47.2627 22.3983 47.3455 22.2326C47.43 22.0669 47.5527 21.9335 47.7134 21.8324C47.8742 21.7313 48.0689 21.6808 48.2976 21.6808C48.5329 21.6808 48.7301 21.7313 48.8892 21.8324C49.0483 21.9318 49.1684 22.0644 49.2496 22.2301C49.3325 22.3958 49.3739 22.5781 49.3739 22.777V23.0455C49.3739 23.2427 49.3325 23.4241 49.2496 23.5898C49.1668 23.7556 49.045 23.889 48.8842 23.9901C48.7251 24.0911 48.5296 24.1417 48.2976 24.1417C48.0656 24.1417 47.8692 24.0911 47.7085 23.9901C47.5477 23.889 47.4259 23.7556 47.343 23.5898C47.2618 23.4241 47.2212 23.2427 47.2212 23.0455ZM47.87 22.777V23.0455C47.87 23.1764 47.9015 23.2965 47.9645 23.4059C48.0275 23.5153 48.1385 23.57 48.2976 23.57C48.4583 23.57 48.5685 23.5161 48.6282 23.4084C48.6895 23.299 48.7202 23.178 48.7202 23.0455V22.777C48.7202 22.6444 48.6912 22.5234 48.6332 22.4141C48.5752 22.303 48.4633 22.2475 48.2976 22.2475C48.1418 22.2475 48.0316 22.303 47.967 22.4141C47.9023 22.5234 47.87 22.6444 47.87 22.777ZM44.6335 20.1321V19.8636C44.6335 19.6648 44.6758 19.4825 44.7603 19.3168C44.8448 19.151 44.9674 19.0185 45.1282 18.919C45.2889 18.8179 45.4837 18.7674 45.7124 18.7674C45.946 18.7674 46.1424 18.8179 46.3015 18.919C46.4622 19.0185 46.5832 19.151 46.6644 19.3168C46.7456 19.4825 46.7862 19.6648 46.7862 19.8636V20.1321C46.7862 20.331 46.7448 20.5133 46.6619 20.679C46.5807 20.843 46.4598 20.9748 46.299 21.0742C46.1383 21.1737 45.9427 21.2234 45.7124 21.2234C45.4787 21.2234 45.2815 21.1737 45.1207 21.0742C44.9616 20.9748 44.8407 20.8422 44.7578 20.6765C44.675 20.5108 44.6335 20.3293 44.6335 20.1321ZM45.2873 19.8636V20.1321C45.2873 20.2647 45.3179 20.3857 45.3793 20.495C45.4422 20.6027 45.5533 20.6566 45.7124 20.6566C45.8714 20.6566 45.9808 20.6027 46.0405 20.495C46.1018 20.3857 46.1325 20.2647 46.1325 20.1321V19.8636C46.1325 19.7311 46.1035 19.6101 46.0455 19.5007C45.9875 19.3897 45.8764 19.3342 45.7124 19.3342C45.5549 19.3342 45.4447 19.3897 45.3817 19.5007C45.3188 19.6117 45.2873 19.7327 45.2873 19.8636ZM44.9169 24L48.4169 18.9091H49.0384L45.5384 24H44.9169Z" fill="white"/>
<defs>
<linearGradient id="paint0_linear_3015_75105" x1="63.9776" y1="6" x2="31.4708" y2="49.9778" gradientUnits="userSpaceOnUse">
<stop stop-color="#2E253A"/>
<stop offset="0.5" stop-color="#68526E"/>
<stop offset="1" stop-color="#2E253A"/>
</linearGradient>
</defs>
</svg>
